<svg width="705" height="166" viewBox="0 0 705 166" fill="none" xmlns="http://www.w3.org/2000/svg">
<g clip-path="url(#clip0_1742_14365)">
<path d="M543.312 70.2317H576.599V54.5538V43.2072V28.9642V17.4316H560.593V28.9642H507.122V17.4316H491.115V70.2583H524.403V78.8147H477.822V94.4926H589.865V78.8147H543.284V70.2583L543.312 70.2317ZM507.122 54.5538V43.2072H560.593V54.5538H507.122Z" fill="#333333"/>
<path d="M634.546 115.592H653.482V85.9098H688.994V94.4663H668.24V110.144H688.994V121.278H705V17.4053H688.994V70.2319H602.046V85.9098H634.546V115.592Z" fill="#333333"/>
<path d="M491.088 118.7H560.565V159.277H576.599V118.7V103.022H491.088V118.7Z" fill="#333333"/>
<path d="M623.857 143.599V118.195H607.851V148.037V159.277H705V143.599H623.857Z" fill="#333333"/>
<path d="M660.78 61.6755H676.786V33.0832V17.4053H660.78H608.312V33.0832H660.78V61.6755Z" fill="#333333"/>
<path d="M303.247 67.3617H333.632V51.6838H269.96V31.5948H333.632V17.3252H253.954V17.4049V67.3617H284.338V78.788H239.793V94.4659H347.82V78.788H303.247V67.3617Z" fill="#333333"/>
<path d="M451.48 47.9639H437.102V17.4053H421.095V47.9639V63.6419V94.2005H437.102V63.6419H451.48V94.2005H467.486V17.4053H451.48V47.9639Z" fill="#333333"/>
<path d="M406.093 17.3252H359.458V31.5682H406.093V17.3252Z" fill="#333333"/>
<path d="M293.806 103.022C277.149 103.022 263.639 116.256 263.639 132.571C263.639 148.887 277.149 162.12 293.806 162.12C310.464 162.12 323.974 148.887 323.974 132.571C323.974 116.256 310.464 103.022 293.806 103.022ZM293.806 146.203C286.129 146.203 279.889 140.091 279.889 132.571C279.889 125.051 286.129 118.94 293.806 118.94C301.484 118.94 307.724 125.051 307.724 132.571C307.724 140.091 301.484 146.203 293.806 146.203Z" fill="#333333"/>
<path d="M428.04 103.022C411.383 103.022 397.873 116.256 397.873 132.571C397.873 148.887 411.383 162.12 428.04 162.12C444.698 162.12 458.208 148.887 458.208 132.571C458.208 116.256 444.698 103.022 428.04 103.022ZM428.04 146.203C420.363 146.203 414.123 140.091 414.123 132.571C414.123 125.051 420.363 118.94 428.04 118.94C435.718 118.94 441.958 125.051 441.958 132.571C441.958 140.091 435.718 146.203 428.04 146.203Z" fill="#333333"/>
<path d="M409.918 72.1444C409.918 65.4747 407.395 59.363 403.245 54.7127H414.123V40.4697H351.456V54.7127H362.334C358.184 59.3895 355.661 65.4747 355.661 72.1444C355.661 86.8392 367.814 98.7438 382.817 98.7438C397.819 98.7438 409.973 86.8392 409.973 72.1444H409.918ZM382.762 82.8001C376.767 82.8001 371.884 78.017 371.884 72.1444C371.884 66.2719 376.767 61.4888 382.762 61.4888C388.758 61.4888 393.641 66.2719 393.641 72.1444C393.641 78.017 388.758 82.8001 382.762 82.8001Z" fill="#333333"/>
<path d="M171.401 59.7886C171.645 48.9469 167.169 38.6633 158.406 30.1068C157.999 29.7083 157.592 29.3362 157.158 28.9376C140.718 13.8709 120.615 12.0374 102.656 23.1714C104.284 27.4761 105.613 31.9669 106.671 36.5906C120.344 26.3335 135.129 26.9447 147.88 38.6367C148.178 38.929 148.504 39.2213 148.802 39.5136C154.961 45.5456 157.999 52.2685 157.836 59.4963C157.619 68.6373 152.302 78.3098 142.834 86.7865C141.423 88.0354 140.636 89.8158 140.636 91.7025C140.636 93.5891 141.423 95.3429 142.834 96.6184C152.302 105.095 157.619 114.768 157.836 123.909C157.999 131.136 154.961 137.859 148.802 143.891C148.504 144.184 148.205 144.476 147.88 144.742C130.219 160.951 111.853 148.701 102.466 139.985C101.489 139.055 100.54 138.072 99.6446 137.062C98.9664 136.132 98.044 135.335 96.9046 134.83C94.1103 133.581 90.8277 134.325 88.8744 136.637C87.8977 137.806 86.8397 138.922 85.7003 139.959C76.3408 148.701 57.9745 160.924 40.2864 144.715C39.988 144.449 39.6896 144.157 39.3912 143.865C33.3143 137.912 30.1945 130.499 30.3844 122.474C30.52 116.309 32.5818 110.038 36.19 104.192C31.5509 103.208 27.0746 101.986 22.7883 100.445C19.0987 107.407 17.0098 114.821 16.847 122.181C16.5757 133.927 21.0791 144.689 29.8147 153.245C30.2216 153.644 30.6285 154.042 31.0626 154.414C49.3475 171.182 72.8412 169.667 94.1103 150.481C105.559 160.818 117.631 166.053 129.215 166.053C139.144 166.053 148.721 162.2 157.185 154.467C157.592 154.095 158.026 153.697 158.433 153.298C167.169 144.742 171.672 134.458 171.428 123.616C171.184 112.695 166.111 101.561 157.022 91.729C166.111 81.8971 171.184 70.7631 171.428 59.8418L171.401 59.7886Z" fill="#479332"/>
<path d="M74.0082 97.3065C52.7119 97.3065 25.5558 95.1541 10.0923 80.1671C-1.22043 69.2457 -3.2551 53.5146 5.15488 41.9289C10.011 35.2325 19.3976 29.5194 31.8769 31.5123C29.7066 19.3154 35.4579 10.0416 42.2402 5.23188C53.987 -3.11196 70.0473 -1.30501 81.3601 9.64296C100.323 28.0313 99.8078 63.5591 99.4822 84.7641C99.4551 87.262 99.4009 89.6004 99.4009 91.6731V96.9345L94.0293 96.9876C92.0218 96.9876 89.7158 97.0673 87.1928 97.1205C83.232 97.2268 78.7557 97.3331 74.0353 97.3331L74.0082 97.3065ZM26.9666 41.7694C20.9711 41.7694 16.549 44.5861 13.9989 48.0937C9.71254 54.0195 9.03432 64.2234 17.7156 72.647C33.3419 87.7934 66.9004 86.9963 86.9215 86.518C87.4912 86.518 88.061 86.4914 88.6035 86.4648C88.6035 85.8536 88.6035 85.2425 88.6307 84.6047C88.9291 65.0737 89.3903 32.3892 73.7369 17.1896C65.0556 8.76606 54.6381 9.53667 48.6426 13.8149C43.5423 17.4288 39.9613 24.8426 44.2477 35.0997C52.7662 36.8269 73.1129 42.168 76.8296 53.8866C78.0504 57.7662 77.9961 63.878 70.6713 70.8666C64.6758 76.5797 59.2229 76.5 55.6961 75.4637C44.0035 71.9826 37.8724 51.8671 35.8106 43.5764C32.5822 42.3274 29.6523 41.7694 27.0208 41.7694H26.9666ZM47.9915 46.9777C50.9214 56.0124 55.2078 64.2234 58.8159 65.2863C59.874 65.6052 61.3118 64.9143 63.0752 63.2402C64.5944 61.7787 67.0631 59.0417 66.4392 57.0222C65.2455 53.1957 56.5642 49.3958 47.9915 46.9777Z" fill="#084A3D"/>
</g>
<defs>
<clipPath id="clip0_1742_14365">
<rect width="705" height="166" fill="white"/>
</clipPath>
</defs>
</svg>
