<svg width="296" height="10" viewBox="0 0 296 10" fill="none" xmlns="http://www.w3.org/2000/svg">
<path d="M6.64957 0.370065C12.8415 -0.503869 17.0681 0.424702 22.8122 0.572696C35.4571 0.89783 52.1322 0.604994 65.065 0.628236C74.8538 0.645849 84.8005 0.708216 94.5302 0.758237C95.0292 0.7607 95.327 0.856507 95.5532 0.857721C97.6836 0.868993 101.256 0.782189 103.369 0.794857C107.815 0.821276 115.55 0.806349 119.621 0.896173C121.35 0.934206 123.123 0.950062 123.796 1.17815C124.427 1.18976 124.772 0.983679 124.937 0.972464C124.939 0.972667 124.941 0.972871 124.943 0.973074C125.474 0.938285 126.816 1.08278 127.112 1.07378C127.156 1.07237 126.884 0.923103 127.602 0.968191C127.666 0.972066 127.607 1.07356 128.212 1.075C128.369 1.07535 130.392 0.919721 130.97 0.91021C132.894 0.879236 137.489 1.00141 139.789 0.999318C140.141 0.999318 140.343 0.939952 140.715 0.938895C140.907 0.938281 141.194 1.00272 141.253 1.00237C141.512 1.00008 142.643 0.707423 142.237 1.28495C143.417 1.24834 143.069 1.0574 143.096 0.933402C144.377 0.915496 144.995 1.18749 145.33 0.899223C151.631 0.934012 157.932 0.968801 164.233 1.00359C164.235 0.956595 164.236 0.909599 164.238 0.862604C166.096 1.05031 166.733 0.732804 167.793 1.00542C168.447 0.945406 169.1 0.885389 169.754 0.825374C186.557 1.0103 203.32 0.790493 219.933 0.791195C220.634 0.791195 220.809 0.891195 221.965 0.8919C223.242 0.892601 225.037 0.776382 226.72 0.777767C228.196 0.778824 230.373 0.873427 232.019 0.888238C232.39 0.891408 232.659 0.828073 232.701 0.828425C232.947 0.830899 232.959 0.93117 233.198 0.934012C233.483 0.937183 233.828 0.862907 234.158 0.867486C235.389 0.884028 236.732 0.858427 236.888 0.860163C237.639 0.869655 237.805 0.967718 237.867 0.968801C238.703 0.980769 238.389 0.892259 238.597 0.897392C239.677 0.924517 240.441 1.14546 241.919 0.933402C241.879 1.01539 241.839 1.09738 241.799 1.17937C242.93 1.2255 242.183 1.00764 242.414 0.968191C242.508 0.953574 244.944 0.98018 245.132 0.98406C245.786 0.998147 245.804 1.1071 245.86 1.10857C245.998 1.11209 247.644 0.988434 248.488 1.08354C249.486 1.19625 248.311 1.41789 248.559 1.45951C248.601 1.46655 249.646 1.44384 249.786 1.51322C249.941 1.58786 249.037 1.58628 249.051 1.61759C249.061 1.63907 250.562 1.79294 250.274 1.89651C250.043 2.00038 248.007 1.8672 247.575 1.91604C247.504 1.92412 247.638 2.05232 247.575 2.05702C247.322 2.07428 242.631 2.07814 242.416 2.05702C242.66 1.99864 242.905 1.94025 243.149 1.88186C242.824 1.87596 242.499 1.87006 242.175 1.86416C242.636 1.81737 243.098 1.77058 243.56 1.72378C242.874 1.24301 240.806 1.73039 240.721 1.97036C240.684 2.08132 241.948 2.36682 240.772 2.53308C240.951 2.56157 241.13 2.59005 241.308 2.61853C241.677 2.57174 242.045 2.52495 242.414 2.47815C242.169 2.44866 241.923 2.41916 241.678 2.38966C241.768 2.35629 241.858 2.32293 241.949 2.28956C242.637 2.23606 243.326 2.18255 244.015 2.12904C244.369 2.1537 244.296 2.25221 244.539 2.27125C247.575 2.51113 245.595 2.20588 247.582 2.24989C247.866 2.30279 248.15 2.35568 248.433 2.40858C248.333 2.18981 249.214 2.32717 250.278 2.2328C250.151 2.3036 250.024 2.3744 249.897 2.4452C251.439 2.4075 254.566 2.76445 253.722 2.37379C254.076 2.40715 254.429 2.44052 254.783 2.47388C255.081 2.41 255.38 2.34612 255.678 2.28224C256.091 2.28956 256.503 2.29689 256.916 2.30421C256.917 2.3388 256.919 2.37338 256.921 2.40797C256.592 2.40817 256.263 2.40837 255.934 2.40858C256.181 2.51396 256.428 2.61935 256.675 2.72473C256.918 2.70723 257.161 2.68974 257.403 2.67224C256.385 2.57257 257.728 2.40977 258.053 2.27064C258.911 2.21922 259.46 2.39983 259.747 2.40797C259.883 2.41184 261.477 2.09322 260.852 2.44337C261.672 2.40085 262.492 2.35833 263.312 2.31581C263.633 2.34266 263.954 2.36952 264.274 2.39637C263.578 2.55946 265.595 2.75597 264.109 2.8236C263 2.87433 262.726 2.72184 262.2 2.7229C261.725 2.72365 261.474 2.82635 260.958 2.83093C257.484 2.85981 254.655 2.84097 251.356 2.79553C250.704 2.7864 250.111 2.83675 249.673 2.82971C249.179 2.82158 249.798 2.69277 249.168 2.72412C248.507 2.75726 248.364 2.86238 248.19 2.8645C248.081 2.86569 247.736 2.77111 247.419 2.77111C246.117 2.77113 244.208 2.86258 244.023 2.86205C243.814 2.861 240.13 2.77566 239.953 2.76013C239.86 2.75167 240.054 2.40244 239.242 2.77478C238.989 2.78169 238.736 2.78861 238.482 2.79553C238.523 2.72575 238.564 2.65597 238.605 2.58618C237.105 2.85072 237.621 2.70273 236.174 2.72351C232.71 2.77352 227.601 2.71472 223.812 2.73938C222.966 2.74502 222.644 2.82858 221.643 2.83459C220.713 2.83987 218.286 2.59056 218.814 2.9359C216.745 2.63687 216.412 3.15254 215.376 2.83093C215.251 2.87772 215.126 2.92451 215 2.9713C213.876 2.77052 213.529 2.94698 212.302 2.9713C211.773 2.98187 212.383 2.76832 211.315 3.00609C211.111 2.98839 210.907 2.97069 210.703 2.95299C210.75 2.90132 210.798 2.84964 210.845 2.79797C209.659 2.84024 209.583 2.81331 209.718 3.0067C209.146 2.97151 208.573 2.93631 208.001 2.90112C207.93 2.96459 207.859 3.02806 207.787 3.09154C208.062 3.21261 221.06 3.03003 222.871 2.97191C224.994 3.11559 229.258 2.93597 230.973 2.97008C231.66 2.98382 231.963 3.12738 232.962 3.14464C233.96 3.16188 235.217 3.0315 235.749 3.02684C237.52 3.01064 245.912 3.03928 240.204 3.21788C240.368 3.28786 240.532 3.35785 240.696 3.42783C242.965 3.18902 242.143 3.33604 244.025 3.3607C244.817 3.37122 246.701 3.21494 246.596 3.53281C245.125 3.59199 243.562 3.49039 242.283 3.49497C242.156 3.49547 240.642 3.6406 239.862 3.60117C239.159 3.56517 239.643 3.26215 238.113 3.60239C236.977 3.27003 236.32 3.57156 236.02 3.60361C235.501 3.65919 235.444 3.49515 234.925 3.47605C234.361 3.45495 233.972 3.56384 233.894 3.56455C233.12 3.56701 229.085 3.58186 228.9 3.51572C229.062 3.48663 229.225 3.45754 229.387 3.42844C228.339 3.38162 228.558 3.54935 228.283 3.56943C228.077 3.56882 227.872 3.56821 227.667 3.5676C227.749 3.53281 227.83 3.49802 227.911 3.46323C226.674 3.47063 227.62 3.59152 225.864 3.58835C224.749 3.58622 223.597 3.45341 223.488 3.46323C223.456 3.46605 223.807 3.55559 223.353 3.5676C222.6 3.58732 221.299 3.58504 221.153 3.46323C220.785 3.48047 220.816 3.59967 220.767 3.60239C220.553 3.61401 216.871 3.65454 216.211 3.66159C214.383 3.68096 212.348 3.65555 210.367 3.67563C210.164 3.67764 210.294 3.60114 210.09 3.60361C209.762 3.60753 208.08 3.72757 207.829 3.73605C207.202 3.75682 205.553 3.70921 205.293 3.74399C205.256 3.74892 205.799 3.85231 205.164 3.88436C204.46 3.91983 204.839 3.78077 204.801 3.77938C203.367 3.73183 202.461 3.82845 201.482 3.84713C201.165 3.85312 200.579 3.74847 200.132 3.77938C200.08 3.7829 200.182 3.8796 200.132 3.88436C199.455 3.93509 198.822 3.75561 198.529 3.74399C197.813 3.71557 198.203 3.84802 198.166 3.84896C197.689 3.85319 197.046 3.80541 196.321 3.81173C193.086 3.83991 190.446 3.848 187.007 3.8392C186.575 3.83814 186.062 3.74472 185.996 3.7446C185.792 3.7453 185.85 3.85509 185.26 3.85262C184.015 3.84699 182.861 3.8523 181.628 3.85018C181.38 3.84974 181.274 3.74801 181.085 3.74582C180.451 3.73948 178.287 4.00584 178.251 3.67441C176.992 3.96781 176.155 3.71493 175.141 3.71774C172.74 3.72408 168.981 3.78386 166.587 3.74582C166.083 3.73766 165.847 3.65274 165.566 3.64816C165.063 3.63974 162.189 3.68717 162.039 3.6738C161.744 3.64808 161.92 3.2741 160.403 3.59995C159.513 3.62316 159.618 3.46968 159.434 3.4614C158 3.39976 156.604 3.74231 156.865 3.42844C155.195 3.51367 154.113 3.68712 153.431 3.39365C153.44 3.53687 152.655 3.62278 151.708 3.56821C152.677 3.32763 152.557 3.17388 154.901 3.21788C154.938 3.21858 154.868 3.32215 154.905 3.32286C155.239 3.32985 155.938 3.27756 156.508 3.28318C157.079 3.28882 156.762 3.35962 156.99 3.35825C157.199 3.35685 157.192 3.25774 157.495 3.25633C158.477 3.25245 159.345 3.22513 159.904 3.22337C160.255 3.22235 160.649 3.30943 160.922 3.30943C161.977 3.30872 164.214 3.24072 165.557 3.25023C165.837 3.25245 165.72 3.35016 166.332 3.35825C166.403 3.3592 166.664 3.25731 167.2 3.23619C167.736 3.21506 168.152 3.26565 168.496 3.25511C168.784 3.2463 168.664 3.15579 169.254 3.15013C169.746 3.14555 175.319 3.21076 175.621 3.2252C176.057 3.24602 176.264 3.37314 176.529 3.35764C176.576 3.35432 176.655 3.23155 176.817 3.22276C179.489 3.07767 185.402 3.24517 188.455 3.24412C194.837 3.24236 200.724 3.17012 207.162 3.14159C207.277 3.12022 207.391 3.09886 207.506 3.0775C206.855 3.07669 206.205 3.07587 205.554 3.07506C205.55 3.01728 205.546 2.9595 205.542 2.90173C204.662 2.89258 204.778 3.02922 204.803 3.11168C204.477 3.07669 204.152 3.0417 203.826 3.0067C203.545 3.20806 201.374 3.07414 200.255 3.07445C199.527 3.07445 198.66 3.15121 198.277 3.14525C197.465 3.13293 197.487 3.00868 197.423 3.0067C197.315 3.00388 196.182 3.11347 195.366 3.10924C194.158 3.10321 194.027 2.91243 192.374 3.07445C190.256 2.97547 187.91 3.02529 185.627 3.04149C186.061 2.86515 184.015 3.03205 183.093 3.02929C177.464 3.01202 170.546 2.93668 164.844 2.86694C164.111 2.85813 163.557 2.75425 163.149 2.75769C162.927 2.75945 162.831 2.88192 162.523 2.86572C162.469 2.8626 162.432 2.74808 161.859 2.73083C160.435 2.6875 156.887 2.87862 155.989 2.65881C151.119 2.69279 146.249 2.72676 141.379 2.76074C141.256 2.71395 141.134 2.66715 141.012 2.62036C140.087 2.85949 136.429 2.71897 134.646 2.73022C131.507 2.7503 127.501 2.82465 124.751 2.83276C124.153 2.83452 123.663 2.76668 123.098 2.76806C122.854 2.76877 122.552 2.85671 122.298 2.85717C119.454 2.86386 115.604 2.77327 112.738 2.77539C106.231 2.77997 100.103 2.76663 93.5095 2.7705C71.2994 2.78424 49.2173 2.91358 27.1967 2.86144C26.9015 2.86074 26.9162 2.75962 26.6875 2.75891C25.3369 2.75398 22.3209 2.83733 20.7956 2.83276C19.5803 2.82924 17.6513 2.67462 17.2331 2.83032C21.5506 3.06598 26.1121 3.04825 30.6068 3.11412C30.9263 3.11876 30.966 3.2149 31.0053 3.21666C31.733 3.25006 31.2735 3.11767 32.3287 3.11168C32.6814 3.10967 35.9389 3.41657 35.5513 3.11107C36.3314 3.23328 41.8307 3.29437 42.8919 3.25389C43.2142 3.24156 42.986 3.15105 43.05 3.14647C43.3278 3.12648 43.4532 3.25127 43.7015 3.2545C44.3633 3.26225 46.0465 3.16102 46.3663 3.16173C47.1021 3.16281 49.3083 3.2644 50.2799 3.24046C51.1705 3.21862 51.0038 3.08826 51.7738 3.07628C52.3807 3.06718 51.7196 3.17683 53.0746 3.20994C53.7462 3.22615 56.0954 3.1477 56.6664 3.14769C57.2372 3.14769 57.8721 3.2257 58.6594 3.21971C59.7934 3.21125 62.2603 3.16782 63.4142 3.14281C63.4831 3.1414 63.651 3.03999 63.8207 3.0421C64.1723 3.04635 64.0667 3.17159 64.3322 3.18431C64.5979 3.19699 69.1988 3.18169 69.9802 3.18309C70.5188 3.18379 70.8908 3.10919 71.1884 3.10985C71.422 3.11055 71.447 3.21488 71.6852 3.21605C71.759 3.21605 72.3869 3.12544 73.0143 3.12755C73.607 3.12967 75.8576 3.21584 76.1183 3.21666C76.288 3.21701 76.102 3.14288 76.6038 3.14464C77.0612 3.14645 77.3616 3.24271 77.6223 3.24412C78.2272 3.24725 78.9035 3.16517 79.5453 3.16478C81.3904 3.16372 81.2954 3.28297 81.4061 3.28685C81.713 3.29762 81.836 3.18839 81.9368 3.18614C82.3622 3.17699 83.4049 3.15681 83.7841 3.15257C84.2564 3.14729 84.4565 3.25109 84.9584 3.25145C85.3325 3.25138 86.0878 3.15018 86.9412 3.14525C88.8649 3.13362 91.1527 3.11452 93.042 3.11839C93.6054 3.11945 93.6918 3.21419 93.864 3.21666C94.769 3.22966 95.2757 3.12372 95.534 3.12511C97.3767 3.13462 100.664 3.30083 102.373 3.31492C103.07 3.32056 106.118 3.24381 107.837 3.25755C108.034 3.25897 107.85 3.33326 108.069 3.32163C108.592 3.29376 108.544 3.1425 108.809 3.14708C108.938 3.14975 109.23 3.23503 109.603 3.24351C111.539 3.28754 112.871 3.22123 113.754 3.22581C122.236 3.26984 130.886 3.30947 138.808 3.32286C139.691 3.32426 140.786 3.23427 142.119 3.32163C142.16 3.36863 142.201 3.41563 142.242 3.46262C142.289 3.41644 142.336 3.37026 142.382 3.32408C143.893 3.29906 144.464 3.23962 146.006 3.29844C146.139 3.30337 146.544 3.51791 146.795 3.25145C148.323 3.44449 147.485 3.24988 148.619 3.23192C149.753 3.21396 150.855 3.27345 151.954 3.28685C152.557 3.38231 150.028 3.60248 149.863 3.60178C149.598 3.60093 149.322 3.46844 149.066 3.4614C148.309 3.44033 147.576 3.54547 147.406 3.42722C146.427 3.55224 147.646 3.48978 147.523 3.60239C146.87 3.5558 146.217 3.50921 145.563 3.46262C145.23 3.84563 141.62 3.34615 141.871 3.63779C141.584 3.5794 141.297 3.52101 141.009 3.46262C139.75 3.8285 139.009 3.57087 137.33 3.46201C137.451 3.5088 137.572 3.5556 137.693 3.60239C137.659 3.62192 136.176 3.69674 136.706 3.49741C135.186 3.76005 135.25 3.32318 133.888 3.63901C133.078 3.67952 133.565 3.49608 132.116 3.49924C131.258 3.501 130.192 3.59692 129.232 3.60361C129.011 3.60484 128.915 3.49863 128.719 3.49863C128.522 3.49867 128.426 3.60282 128.188 3.60544C127.696 3.61108 127.058 3.53797 126.751 3.54502C126.475 3.55103 126.081 3.64288 125.417 3.65732C123.098 3.70837 123.798 3.57721 123.432 3.53281C123.038 3.48561 122.755 3.65844 121.971 3.6384C121.892 3.63628 122.096 3.52858 121.84 3.53281C121.633 3.53612 121.53 3.65319 120.846 3.67502C120.574 3.68383 116.349 3.7089 115.705 3.71103C114.719 3.7142 112.521 3.61511 111.5 3.61582C111.107 3.61583 110.686 3.70982 110.268 3.7092C108.883 3.70708 106.666 3.69913 104.909 3.69455C103.328 3.6903 100.551 3.48284 99.6848 3.67014C97.4638 3.69444 96.9243 3.53438 96.7569 3.5322C96.3042 3.52621 96.0946 3.63225 95.5239 3.63718C88.1312 3.69882 78.3964 3.62872 71.3951 3.63718C55.1536 3.65761 38.8235 3.71555 22.5254 3.67258C22.4818 3.71957 22.4381 3.76657 22.3944 3.81356C24.3207 3.84386 26.5845 3.9255 28.4862 3.94417C31.025 3.96881 34.7911 3.7731 36.6534 4.09432C35.8981 4.12249 34.6677 3.99932 34.6898 4.1645C36.0398 4.1763 37.3899 4.1881 38.74 4.1999C38.6997 4.12361 38.6595 4.04732 38.6192 3.97103C40.0288 3.94884 41.4706 3.96547 42.8851 3.95455C43.1308 3.95275 42.9568 3.88349 43.1708 3.88314C43.4102 3.88289 43.2479 3.95338 43.2928 3.95394C43.8978 3.95464 44.0805 3.88333 44.1543 3.88436C44.3437 3.88718 44.1964 3.95506 44.7426 3.97408C45.7557 4.00961 46.4812 3.82928 46.2432 4.12972C46.5703 4.12972 46.8974 4.12972 47.2245 4.12972C47.3091 4.04793 47.3938 3.96615 47.4785 3.88436C49.4904 4.21455 50.4181 3.63535 51.5299 4.09493C51.8965 4.02474 52.2631 3.95455 52.6297 3.88436C52.8363 3.96615 53.043 4.04793 53.2496 4.12972C53.2899 4.05953 53.3302 3.98934 53.3704 3.91915C55.3457 3.97091 57.4488 3.88665 59.338 3.89474C60.654 3.90037 60.9692 3.92809 62.1349 3.92281C64.7277 3.91084 62.1529 4.05011 64.3074 4.20051C64.1952 4.11446 64.083 4.0284 63.9709 3.94234C64.3277 3.91081 64.6845 3.87928 65.0413 3.84774C65.2897 3.91793 65.5381 3.98812 65.7866 4.05831C66.8885 3.69425 67.6024 3.98812 67.7524 3.98812C67.8736 3.98748 68.2899 3.76832 69.5941 3.95394C69.0533 3.6543 70.5889 3.95218 70.7119 3.95394C70.8288 3.95515 72.3239 3.88826 72.9307 3.89108C73.408 3.89321 74.4262 3.95771 75.1371 3.95455C75.7647 3.95174 75.701 3.85002 75.7468 3.84896C76.5193 3.84051 76.0352 3.91955 76.5937 3.92342C77.1521 3.92729 77.5853 3.8406 77.7059 3.84835C77.7665 3.85248 77.5638 3.94724 77.8414 3.95638C78.5869 3.98134 79.935 3.89838 80.7885 3.90084C81.091 3.90161 81.4723 3.98199 81.8092 3.98446C82.3257 3.98796 82.5671 3.88119 82.8672 3.88436C82.9716 3.88576 83.6379 4.05069 84.4661 4.02535C84.6237 4.02027 85.0865 3.67126 85.7014 4.16573C85.7488 4.09615 85.7962 4.02657 85.8437 3.95699C88.6211 3.78474 89.394 4.34997 90.629 3.84835C92.6457 3.90438 91.2612 4.09978 91.4826 4.12972C91.6257 4.14863 92.2832 4.09491 92.3555 4.09798C92.4834 4.10397 92.4614 4.16668 92.6016 4.16634C95.1724 4.15471 94.031 4.0363 94.8452 3.96126C96.7813 3.78267 98.2919 4.17917 94.9243 4.06014C94.9243 4.09513 94.9243 4.13012 94.9243 4.16511C95.7535 4.13167 97.8584 4.14755 97.1555 4.32502C96.602 4.46486 91.6083 4.37359 94.4365 4.56977C95.0786 4.61415 95.4112 4.48283 96.5232 4.72906C97.2585 4.74242 97.3645 4.42342 98.3603 4.55146C98.1966 4.44017 98.0328 4.32889 97.8691 4.2176C99.2271 4.07255 100.902 4.26713 101.945 4.20479C102.3 4.18354 103.577 3.65298 103.279 4.18342C103.875 4.15035 106.681 4.24806 107.203 4.20051C107.328 4.18903 107.491 3.90661 109.306 4.00521C109.432 4.04061 109.558 4.07601 109.685 4.11141C108.025 4.21425 110.956 4.31886 110.16 4.58685C109.889 4.4664 108.573 4.39293 108.361 4.33235C108 4.22808 109.077 4.09369 107.704 4.13033C106.839 4.57823 109.313 4.37212 108.935 4.79742C110.737 4.59889 110.917 4.78832 111.325 4.7962C113.069 4.82825 114.167 4.78317 115.812 4.83282C116.213 4.74546 113.234 4.61935 112.865 4.65704C114.223 4.3474 111.886 4.3334 110.9 4.51728C110.817 4.42369 110.734 4.33011 110.651 4.23652C111.935 4.28725 113.188 4.31331 114.46 4.23652C114.543 4.27152 114.625 4.30651 114.708 4.3415C114.423 4.39419 114.138 4.44689 113.852 4.49958C114.91 4.58586 114.276 4.31297 115.685 4.55207C115.729 4.44668 115.772 4.3413 115.816 4.23591C117.167 4.27091 118.518 4.3059 119.869 4.34089C120.573 4.12957 123.173 4.20828 122.697 4.48188C123.746 4.50119 122.451 4.35559 123.434 4.28901C123.862 4.26013 124.699 4.25201 124.905 4.32563C124.817 4.58617 123.565 4.6185 123.186 4.79742C123.416 4.85514 129.238 4.66913 128.719 4.97381C129.184 5.01044 128.97 4.85347 129.808 4.81329C132.158 4.70127 135.797 5.0115 137.689 4.62225C135.467 4.40561 134.81 4.63507 133.108 4.64423C132.02 4.65021 125.39 4.68716 126.871 4.41169C126.628 4.44668 126.384 4.48167 126.141 4.51667C125.895 4.43468 125.648 4.35269 125.402 4.2707C126.096 4.2589 126.79 4.2471 127.483 4.2353C127.649 4.31709 127.815 4.39887 127.98 4.48066C128.057 4.42227 128.133 4.36388 128.209 4.30549C128.501 4.29389 128.794 4.2823 129.086 4.2707C129.004 4.34089 128.921 4.41108 128.839 4.48127C129.29 4.49327 129.74 4.50527 130.19 4.51728C130.069 4.42349 129.948 4.3297 129.826 4.23591C131.946 4.21233 131.228 4.27107 132.404 4.44648C133.282 4.46442 131.799 4.28415 133.656 4.23835C135.816 4.18518 134.399 4.47176 137.196 4.41047C137.237 4.36368 137.277 4.31688 137.317 4.27009C137.932 4.31688 138.547 4.36368 139.162 4.41047C139.081 4.35228 139 4.2941 138.918 4.23591C140.188 4.25846 141.937 4.14741 142.358 4.37568C141.071 4.26577 141.084 4.66434 141.418 4.73761C142.109 4.88795 152.312 4.74808 154.289 4.73822C156.818 4.72554 158.73 4.85321 161.039 4.65704C159.474 4.49615 153.97 4.62796 152.926 4.51667C152.823 4.50575 152.852 4.14038 152.188 4.55146C150.048 4.48174 147.49 4.59821 144.816 4.58624C144.897 4.48106 144.979 4.37588 145.061 4.2707C146.704 4.49439 148.225 4.00307 148.011 4.41169C148.338 4.41169 148.665 4.41169 148.993 4.41169C148.993 4.3413 148.993 4.27091 148.993 4.20051C149.486 4.20051 149.979 4.20051 150.472 4.20051C150.472 4.27091 150.472 4.3413 150.472 4.41169C150.88 4.41169 151.288 4.41169 151.697 4.41169C151.739 4.3415 151.782 4.27131 151.824 4.20112C153.047 4.34691 157.216 3.95712 155.384 4.37629C155.958 4.37629 156.532 4.37629 157.107 4.37629C157.105 4.32482 157.103 4.27335 157.101 4.22188C157.348 4.21496 157.595 4.20804 157.842 4.20112C157.76 4.24771 157.679 4.2943 157.598 4.34089C158.729 4.25742 159.802 4.50269 160.545 4.3415C160.055 4.3063 159.565 4.27111 159.075 4.23591C160.015 4.30277 161.746 4.16425 161.901 4.16389C162.373 4.16319 162.622 4.26725 163.134 4.27253C163.596 4.27705 163.532 4.19709 163.618 4.1999C166.11 4.2813 165.16 4.71416 166.324 4.20173C166.448 4.27172 166.572 4.3417 166.695 4.41169C166.86 4.3533 167.025 4.29491 167.19 4.23652C167.926 4.24202 168.662 4.24751 169.397 4.253C169.152 4.16552 168.907 4.07804 168.661 3.99056C169.764 3.95152 170.279 4.12691 170.385 4.13094C170.688 4.14114 170.826 4.03105 170.919 4.03084C175.414 4.04035 172.684 4.13729 174.93 4.55085C175.731 4.38855 174.921 4.22585 174.807 4.06075C175.872 4.1382 176.204 4.09248 177.329 4.10164C177.621 4.10413 177.936 4.19321 178.12 4.19441C178.28 4.19547 178.78 4.10081 179.163 4.10042C179.803 4.09971 180.654 4.15614 181.53 4.15474C182.258 4.15333 184.487 4.08648 186.042 4.08577C186.706 4.08577 186.552 4.16495 186.723 4.16511C186.794 4.16511 187.311 4.07027 187.737 4.0699C191.208 4.06779 194.766 4.12781 198.254 4.12605C200.712 4.125 203.209 4.04873 205.671 4.05648C206.195 4.05824 205.918 4.12786 206.147 4.13033C206.225 4.13095 206.32 4.00946 207.13 4.05831C207.423 4.07592 207.086 4.16089 207.374 4.16511C207.514 4.16713 207.574 4.06063 208.393 4.03633C209.881 3.99197 210.681 4.13394 210.814 4.12972C211.064 4.12154 210.991 4.0334 211.323 4.03023C212.946 4.01473 214.301 3.99979 215.75 3.99239C216.427 3.98887 221.091 3.97105 221.347 3.9869C221.92 4.02212 221.387 4.20617 222.122 4.1999C222.328 4.15332 222.534 4.10673 222.74 4.06014C222.413 4.02474 222.085 3.98934 221.758 3.95394C222.659 4.01312 223.68 3.92941 224.346 3.93258C224.47 3.9333 225.603 4.01677 226.181 4.00765C225.935 4.04223 225.69 4.07682 225.444 4.11141C225.531 4.1409 225.618 4.1704 225.705 4.1999C226.861 4.15518 228.084 4.15633 229.269 4.16267C229.697 4.16483 229.552 4.2365 229.985 4.23897C232.507 4.25408 231.87 3.95608 234.295 4.51545C233.476 4.46473 230.489 4.53589 230.054 4.51728C229.752 4.50424 228.578 4.0316 229.009 4.51667C226.588 4.51455 228.69 4.24702 226.43 4.30549C226.475 4.36469 226.52 4.4239 226.565 4.4831C225.776 4.52042 225.193 4.55033 224.713 4.44587C224.552 4.73308 221.871 4.56504 220.4 4.58441C218.275 4.61189 215.873 4.68194 213.767 4.69427C213.042 4.69845 212.631 4.58589 212.54 4.58624C212.407 4.58705 212.033 4.68563 211.768 4.68634C210.776 4.68915 207.76 4.5225 207.009 4.7962C212.909 4.7962 218.808 4.7962 224.708 4.7962C223.966 4.66167 229.933 4.64852 230.236 4.65521C230.516 4.66123 230.28 4.75568 230.364 4.76141C230.984 4.80192 231.513 4.66498 231.71 4.66498C231.86 4.665 232.163 4.72925 232.696 4.72784C232.794 4.72764 232.822 4.65969 232.927 4.65948C233.623 4.65948 234.31 4.66045 235.009 4.66009C235.051 4.66075 235.228 4.76001 235.404 4.76019C235.581 4.76019 235.756 4.66101 235.8 4.66071C236.359 4.66141 237.316 4.72592 237.848 4.72662C238.032 4.72659 237.904 4.65391 238.111 4.6546C238.745 4.65636 238.536 4.79866 239.321 4.76202C239.584 4.74968 239.567 4.64086 240.071 4.65521C240.428 4.66543 240.389 4.85934 240.446 4.86639C240.524 4.8749 241.755 4.72177 242.158 4.84869C241.278 5.18376 243.12 4.86617 243.032 4.72479C243.519 4.76039 244.007 4.796 244.495 4.8316C244.661 4.79579 244.828 4.75999 244.994 4.72418C246.962 4.88551 248.163 4.78865 250.099 4.83831C250.192 4.84078 251.824 4.92038 251.747 4.97075C250.771 5.05739 249.797 5.06135 249.172 4.90118C248.144 5.20659 248.126 4.9632 246.465 5.00371C245.909 5.01745 245.87 5.10031 245.806 5.10137C243.644 5.14257 240.181 5.17823 238.724 4.93597C238.315 5.00149 239.784 5.02747 239.213 5.07573C238.901 5.10216 231.41 5.17953 233.803 4.90057C233.555 4.9083 233.306 4.91603 233.058 4.92376C232.809 5.18725 231.574 5.12699 231.714 4.86456C231.597 4.91827 231.48 4.97197 231.363 5.02568C231.132 5.07113 230.858 5.09547 230.474 5.10991C229.005 5.16484 220.262 5.07344 219.797 5.11113C219.786 5.17338 219.776 5.23564 219.765 5.29789C223.628 5.36834 227.375 5.21364 231.586 5.39188C231.464 5.33349 231.342 5.27511 231.22 5.21672C232.9 5.2985 234.581 5.38029 236.261 5.46207C234.483 5.56775 231.653 5.6565 229.785 5.56949C229.454 5.55397 229.697 5.47254 229.621 5.46268C229.421 5.43707 229.207 5.57834 228.491 5.59207C227.775 5.60579 225.977 5.50564 225.812 5.50846C225.494 5.51427 224.637 5.67591 224.096 5.67386C223.385 5.67104 223.861 5.57099 223.719 5.56888C223.128 5.55905 222.599 5.60862 222.137 5.60123C221.45 5.59023 220.024 5.4143 219.544 5.67264C220.035 5.68444 220.525 5.69624 221.015 5.70804C218.356 5.80068 216.277 5.47044 213.657 5.72513C213.061 6.03793 215.226 5.99566 213.396 6.12917C213.728 6.12469 214.061 6.12021 214.393 6.11574C214.471 6.05023 214.549 5.98472 214.627 5.91921C215.199 5.966 215.772 6.0128 216.344 6.05959C216.181 6.0012 216.017 5.94281 215.854 5.88442C217.884 5.84039 219.933 5.78052 220.642 6.09438C220.683 6.01849 220.725 5.94261 220.767 5.86672C222.651 5.95899 225.48 5.63735 224.952 6.05959C225.041 6.03721 225.13 6.01483 225.219 5.99245C226.358 6.07876 225.872 5.90415 226.3 5.88442C226.422 5.87887 228.636 5.96902 227.655 6.09438C229.815 6.19018 229.149 5.79554 229.744 5.77822C231.126 5.97373 233.613 5.68047 232.568 5.9894C232.774 6.001 232.979 6.01259 233.185 6.02419C233.862 5.78113 234.529 6.05614 235.262 6.14809C235.51 6.15358 235.759 6.15907 236.007 6.16456C236.173 6.08278 236.34 6.001 236.506 5.91921C238.843 6.30846 238.103 5.24393 239.171 6.13832C239.005 6.19183 238.838 6.24533 238.672 6.29884C238.277 6.32427 237.883 6.3497 237.489 6.37513C239.08 6.39873 240.671 6.42233 242.261 6.44593C244.281 6.69662 245.43 6.42462 247.673 6.62292C247.884 6.59912 248.094 6.57532 248.304 6.55152C248.09 6.75406 247.275 6.7243 248.792 6.81518C248.922 6.95838 247.897 6.97692 247.43 6.86706C247.317 6.84025 248.275 6.73056 247.198 6.72668C246.466 6.72392 247.796 6.89602 245.602 6.83227C245.683 6.86726 245.764 6.90225 245.845 6.93725C245.608 6.93623 245.37 6.93521 245.132 6.93419C244.92 6.85322 244.709 6.77225 244.497 6.69128C243.954 6.80823 243.648 6.97212 242.406 6.93725C242.743 6.88653 242.286 6.72393 241.671 6.72668C241.671 6.78527 241.671 6.84387 241.671 6.90246C240.183 6.94015 240.696 6.76825 239.459 6.90246C239.335 6.85587 239.211 6.80928 239.087 6.76269C238.413 6.95467 235.932 7.08528 236.384 6.79748C235.688 7.07718 234.226 6.95098 233.682 6.72729C233.64 6.78548 233.599 6.84366 233.557 6.90185C233.267 6.91365 232.978 6.92545 232.689 6.93725C232.527 6.90205 232.366 6.86685 232.204 6.83166C231.999 6.86685 231.794 6.90205 231.589 6.93725C231.465 6.87886 231.341 6.82047 231.217 6.76208C230.888 6.83207 230.558 6.90205 230.228 6.97204C230.026 6.92545 229.825 6.87886 229.623 6.83227C229.602 6.95406 227.603 6.98118 227.045 6.90124C226.879 6.93664 226.712 6.97204 226.546 7.00743C226.465 6.94945 226.383 6.89147 226.302 6.83349C226.178 6.87987 226.054 6.92626 225.931 6.97265C225.645 6.92626 225.36 6.87987 225.075 6.83349C223.911 7.11775 223.874 6.86835 223.608 6.87011C223.115 6.87337 221.438 7.05138 221.158 7.04222C220.878 7.033 220.742 6.93097 220.516 6.92138C216.789 6.76111 218.321 7.03489 217.574 7.07823C217.17 7.10183 216.885 7.00666 216.528 7.0172C215.918 7.03481 212.84 7.16075 212.663 7.14842C212.405 7.13063 213.012 6.68181 212.174 6.79748C212.146 7.03848 210.354 6.79524 211.192 7.13133C210.454 7.10183 209.716 7.07233 208.978 7.04283C209.061 7.32852 208.151 7.14478 207.16 7.16063C205.755 7.18284 202.592 7.37068 202.707 7.07762C202.371 7.14496 202.034 7.2123 201.698 7.27964C199.395 7.18739 197.137 7.28405 194.852 7.28758C188.069 7.2985 180.711 7.23488 173.96 7.17711C173.636 7.17425 173.682 7.07852 173.449 7.0764C172.221 7.06583 169.03 7.13355 167.311 7.11241C166.76 7.10572 166.492 7.01233 166.317 7.00804C165.724 6.9929 165.864 7.11593 165.591 7.11241C165.16 7.10676 162.882 6.99256 162.097 6.98058C161.709 6.97465 161.249 7.07241 160.794 7.04222C160.755 7.03977 160.828 6.93901 160.794 6.93725C159.965 6.92492 160.464 7.01201 160.184 7.00743C158.184 6.97468 156.046 6.97268 153.876 6.95189C153.337 6.94661 152.513 6.87558 152.05 6.86889C151.874 6.86652 152.19 6.94297 151.581 6.93664C151.372 6.93447 151.3 6.83505 151.065 6.82861C150.049 6.80149 149.709 7.12095 148.836 6.86401C147.15 6.88091 144.217 6.96295 142.679 6.96471C142.316 6.96501 142.139 6.90629 141.792 6.90734C141.546 6.90804 141.113 6.999 140.729 7.00011C140.346 7.00117 139.74 6.91455 139.002 6.91772C138.225 6.9209 137.259 6.97235 137.083 6.97204C136.872 6.97204 136.773 6.86263 136.562 6.86401C135.922 6.86753 134.21 6.97506 133.385 6.98668C132.5 6.999 131.968 6.94595 131.666 6.94701C131.385 6.94848 131.059 7.0408 130.931 7.04161C130.732 7.04302 130.684 6.93513 130.432 6.93603C130.018 6.93779 129.592 7.00564 128.973 7.00743C117.814 7.0409 106.873 6.98162 96.0162 6.90307C94.8059 6.89427 94.122 6.96993 92.3385 6.93542C91.6154 6.92133 91.9201 6.80999 91.3573 6.83105C91.1064 6.84056 91.1698 6.92812 90.8526 6.93236C89.4503 6.95068 87.8165 6.86931 87.2088 6.87072C86.9678 6.87114 86.6924 6.97059 86.1982 6.97204C82.5155 6.98331 78.1585 6.95539 74.1953 6.97265C72.0969 6.9818 68.9199 7.03248 66.5115 7.03917C59.857 7.05784 52.6983 7.0348 46.6294 7.04466C37.4654 7.05911 28.3455 7.15107 19.2012 7.04222C23.4793 7.28281 29.3048 7.26273 34.0676 7.2888C47.8245 7.36348 62.4722 7.2237 76.5711 7.22899C81.4765 7.23075 87.6615 7.22521 93.0318 7.28086C93.2754 7.28333 93.7802 7.20685 94.3066 7.21495C94.4185 7.21684 95.8053 7.35636 96.2725 7.35777C95.8297 7.10977 97.6601 7.3308 98.2259 7.32481C98.9395 7.31701 100.428 7.19308 102.098 7.26316C103.613 7.32657 103.195 7.42197 103.279 7.42795C103.815 7.46662 104.002 7.31288 104.413 7.29734C106.09 7.23535 114.72 7.32466 117.129 7.3303C117.751 7.33171 117.769 7.42943 117.909 7.42978C118.281 7.43043 118.809 7.33392 119.404 7.33457C120.477 7.33598 121.712 7.42821 122.303 7.42856C123.715 7.42962 126.394 7.32082 128.23 7.3187C128.746 7.31807 128.714 7.41976 128.948 7.41941C129.976 7.41762 132.655 7.29779 133.932 7.29673C136.006 7.29497 138.139 7.36071 140.247 7.32725C140.381 7.37262 140.514 7.41798 140.648 7.46335C140.859 7.41575 141.07 7.36814 141.28 7.32054C144.845 7.35681 148.474 7.25464 152.019 7.26133C152.427 7.26204 154.449 7.34886 154.786 7.34922C155.067 7.34922 155.343 7.23684 155.758 7.2534C156.341 7.27637 155.793 7.49038 156.744 7.42917C157 7.41262 156.752 7.32101 157.266 7.29246C157.436 7.28295 160.73 7.24584 160.907 7.25218C161.202 7.26286 161.466 7.45913 161.542 7.46335C161.938 7.4855 161.921 7.33488 162.187 7.32115C162.97 7.28003 163.995 7.38135 164.122 7.37913C165.662 7.3513 168.541 7.23107 170.157 7.30223C170.381 7.31215 170.354 7.42431 170.393 7.42795C170.647 7.45119 170.804 7.32349 171.045 7.32054C172.341 7.30609 174.372 7.39208 175.675 7.41392C175.826 7.41629 176.143 7.35487 176.411 7.36082C177.926 7.39534 177.434 7.49391 177.521 7.49814C177.725 7.5086 178.084 7.39989 178.627 7.39316C180.027 7.3752 182.711 7.39081 184.212 7.39927C185.336 7.40596 185.319 7.53047 185.393 7.53293C185.551 7.5374 185.989 7.438 186.729 7.42673C188.153 7.40455 187.991 7.50236 188.576 7.49814C188.625 7.49814 188.54 7.40242 189.189 7.39255C190.444 7.37356 193.263 7.46766 194.606 7.46274C195.122 7.46098 195.243 7.36868 195.772 7.36692C196.611 7.36376 198.503 7.46361 198.653 7.46335C198.694 7.46335 198.788 7.35716 199.034 7.35716C199.305 7.35717 199.571 7.41183 199.773 7.41147C200.921 7.41001 202.9 7.22468 202.351 7.60373C202.719 7.51015 203.087 7.41656 203.455 7.32298C205.861 7.34165 208.198 7.30416 210.582 7.28514C211.118 7.28092 211.566 7.35271 212.018 7.34922C212.471 7.3457 214.467 7.22694 214.801 7.22471C215.396 7.22084 218.779 7.20832 219.2 7.21678C220.021 7.23298 220.819 7.38963 221.153 7.35899C221.421 7.33433 221.173 7.24606 221.685 7.22105C222.571 7.17779 224.076 7.29117 224.346 7.28941C224.462 7.28869 224.246 7.21989 225.328 7.21495C225.911 7.21213 226.224 7.28793 226.435 7.28758C226.501 7.28718 226.402 7.16426 227.557 7.18077C228.354 7.19239 228.694 7.28722 228.777 7.28758C228.903 7.28821 229.206 7.18701 229.71 7.19053C230.888 7.19937 233.043 7.31538 234.162 7.3242C234.379 7.32596 234.305 7.2037 235.168 7.21495C235.786 7.22305 235.678 7.32031 235.909 7.3242C236.275 7.33019 236.822 7.21109 237.631 7.21495C238.649 7.21988 246.212 7.34341 246.603 7.37547C246.866 7.39695 247.172 7.39831 247.302 7.45115C247.19 7.5018 247.078 7.55246 246.967 7.60312C245.809 7.42535 246.276 7.62852 245.968 7.64157C245.523 7.66024 243.845 7.63432 243.439 7.67941C243.295 7.69569 243.626 7.80383 242.849 7.85946C242.015 7.91893 241.644 7.72643 241.312 7.98946C240.129 7.69743 238.992 8.00738 240.362 8.09016C241.127 8.13632 248.631 8.24058 250.163 8.25679C251.406 8.2698 253.733 8.19155 255.26 8.21162C256.158 8.2236 258.37 8.23717 258.276 8.37702C259.073 8.39463 258.23 8.25541 258.397 8.23603C258.747 8.19558 261.235 8.29173 261.705 8.28791C264.028 8.2696 266.958 8.11326 269.214 8.28974C269.109 8.32718 269.004 8.36461 268.899 8.40204C268.393 8.47074 266.041 8.37253 265.775 8.55219C269.214 8.55219 272.654 8.55219 276.093 8.55219C276.029 8.39931 280.295 8.40136 280.497 8.4704C280.422 8.54446 280.347 8.61851 280.272 8.69256C277.861 8.41152 278.078 8.78301 276.459 8.58576C275.8 8.58297 275.999 8.70533 275.674 8.72857C272.442 8.95959 275.622 8.47749 273.148 8.58698C273.893 8.76445 271.867 8.82931 270.959 8.85186C270.752 8.85679 268.038 8.81181 267.716 8.81463C265.905 8.83048 262.796 8.92771 260.997 8.8305C259.581 8.81887 258.801 8.94529 257.514 8.97454C256.538 8.99673 256.818 8.90788 256.358 8.90679C255.393 8.90432 255.076 9.17481 254.459 8.79754C253.805 8.84454 253.151 8.89153 252.497 8.93853C252.497 8.87994 252.497 8.82134 252.497 8.76275C252.087 8.76275 251.676 8.76275 251.265 8.76275C251.145 8.82114 251.024 8.87953 250.903 8.93792C249.6 8.85795 250.144 8.71686 249.9 8.55097C249.619 8.53957 249.337 8.52818 249.056 8.51679C248.838 8.64414 248.62 8.7715 248.402 8.89886C247.145 8.88848 245.888 8.8781 244.63 8.86773C244.549 8.80934 244.468 8.75095 244.387 8.69256C244.384 8.75095 244.381 8.80934 244.379 8.86773C242.25 8.87973 240.121 8.89174 237.992 8.90374C237.426 8.99741 240.837 9.06839 241.095 9.07402C242.532 9.10501 246.347 9.0111 246.352 9.21928C247.246 9.06395 249.934 9.10252 250.771 9.28886C249.501 9.27767 248.232 9.26648 246.962 9.25529C247.003 9.32507 247.044 9.39485 247.085 9.46463C245.503 9.18319 245.272 9.19868 243.646 9.46463C243.644 9.37105 243.643 9.27747 243.641 9.18388C242.507 9.5093 240.503 8.95729 240.446 9.35905C239.842 9.3265 239.238 9.29394 238.635 9.26139C237.331 9.31037 239.355 9.61935 234.251 9.4982C233.9 9.48975 233.973 9.38741 233.444 9.39445C233.291 9.39656 232.418 9.54544 230.748 9.52994C230.487 9.52746 230.467 9.43868 230.197 9.4274C229.572 9.40064 228.327 9.57624 228.892 9.29008C226.418 9.20662 227.443 9.44148 226.676 9.53482C226.164 9.59677 226.267 9.42746 225.824 9.46586C225.277 9.51347 225.679 9.68415 223.485 9.60562C223.731 9.59402 223.977 9.58243 224.223 9.57083C224.099 9.52445 223.976 9.47806 223.852 9.43168C222.6 9.54298 222.718 9.38035 222.128 9.64102C221.217 9.52478 220.43 9.51552 219.185 9.53665C216.767 9.57787 218.007 9.85879 215.247 9.4805C214.799 9.5336 214.352 9.5867 213.905 9.6398C213.17 9.52814 213.765 9.38844 212.668 9.36027C213.526 9.63609 211.211 9.53552 210.82 9.7814C210.779 9.72281 210.738 9.66421 210.697 9.60562C210.452 9.60562 210.207 9.60562 209.962 9.60562C209.961 9.65262 209.961 9.69961 209.96 9.74661C209.634 9.71141 209.307 9.67622 208.981 9.64102C208.735 9.68761 208.49 9.7342 208.245 9.78079C207.841 9.68252 207.438 9.58426 207.034 9.486C206.781 9.47928 206.528 9.47257 206.274 9.46586C206.354 9.53584 206.435 9.60582 206.515 9.67581C206.189 9.65241 205.864 9.62902 205.538 9.60562C205.917 9.72046 205.679 9.85511 204.665 9.85159C203.829 9.84876 204.771 9.60908 202.973 9.70877C202.847 9.71587 202.625 9.88681 200.926 9.91323C198.887 9.9449 199.877 9.82109 199.514 9.8168C199.443 9.81609 198.82 9.90212 198.237 9.91445C197.906 9.92147 197.587 9.85201 197.544 9.8522C197.34 9.85537 197.28 9.95362 196.997 9.95717C196.279 9.96563 195.315 9.91748 194.611 9.92238C194.292 9.9245 193.991 9.98271 193.848 9.98342C193.627 9.98409 193.346 9.89518 193.122 9.89553C192.295 9.89739 191.041 10.1924 190.657 9.78262C189.863 10.1594 188.198 9.70386 188.32 9.95656C186.196 9.86119 180.533 10.1712 180.699 9.74661C179.496 10.1097 179.604 9.84674 179.1 9.8522C178.537 9.85818 178.829 9.92861 178.381 9.92544C177.336 9.91803 176.337 9.88778 175.296 9.88637C175.459 9.82819 175.623 9.77 175.786 9.71182C174.694 9.69315 175.07 9.82856 173.956 9.85464C171.907 9.90219 172.77 9.79415 172.468 9.64163C172.549 9.78888 170.132 9.76598 169.886 9.74661C169.74 9.7348 170.383 9.54502 168.903 9.60623C168.984 9.66462 169.065 9.72301 169.146 9.7814C168.471 9.70154 166.64 9.80287 166.329 9.78323C166.187 9.77407 165.424 9.30319 164.725 9.67581C164.641 9.61742 164.556 9.55903 164.472 9.50064C163.696 9.57083 162.921 9.64102 162.145 9.71121C162.021 9.60603 161.897 9.50085 161.773 9.39567C161.527 9.39567 161.281 9.39567 161.035 9.39567C161.198 9.48905 161.362 9.58243 161.525 9.67581C160.005 9.63355 158.148 9.7808 157.835 9.46586C157.509 9.52424 157.184 9.58263 156.858 9.64102C156.646 9.53625 156.434 9.43147 156.222 9.3267C154.715 9.35313 154.69 9.42317 153.659 9.53482C153.7 9.45304 153.74 9.37125 153.78 9.28947C153.02 9.4043 151.632 9.51123 150.535 9.52567C150.013 9.53233 149.118 9.41963 148.995 9.42985C148.87 9.44061 147.647 9.8834 147.514 9.50003C145.714 9.66982 144.921 9.49642 144.19 9.50064C143.716 9.50349 143.499 9.5955 142.963 9.60501C142.195 9.61875 141.423 9.57426 140.98 9.5806C140.727 9.58447 140.679 9.67421 140.505 9.67703C139.679 9.69072 140.163 9.59902 139.292 9.60501C139.212 9.60605 138.575 9.71551 137.858 9.70144C137.457 9.69366 136.419 9.57053 136.328 9.57083C135.922 9.57295 136.246 9.8191 134.859 9.53482C134.899 9.58161 134.939 9.62841 134.98 9.6752C133.263 9.79391 132.992 9.58527 132.645 9.57083C132.6 9.56965 132.182 9.6503 131.932 9.63919C131.51 9.62019 131.339 9.50978 131.246 9.50492C130.916 9.48801 129.806 9.53658 129.08 9.42985C129.233 9.74406 126.689 9.85582 126.126 9.50003C125.676 9.57022 125.226 9.64041 124.776 9.7106C124.572 9.65201 124.368 9.59341 124.165 9.53482C124.041 9.59321 123.917 9.6516 123.793 9.70999C123.137 9.58141 122.481 9.45283 121.825 9.32426C121.783 9.45304 121.742 9.58182 121.7 9.7106C121.516 9.69595 121.332 9.6813 121.149 9.66665C121.005 9.56432 120.862 9.46199 120.719 9.35966C120.489 9.37919 120.259 9.39872 120.03 9.41825C119.973 9.4923 119.916 9.56636 119.859 9.64041C118.625 9.72578 119.259 9.01947 116.908 9.64041C116.542 9.58202 116.176 9.52363 115.81 9.46524C115.397 9.74942 114.623 9.57734 113.998 9.60928C113.558 9.63182 113.582 9.74471 112.982 9.74722C112.381 9.74968 112.403 9.64173 112.356 9.64102C111.867 9.63438 111.498 9.72957 111.139 9.7106C111.085 9.70778 110.949 9.57958 110.492 9.57144C110.034 9.56334 109.759 9.69969 109.077 9.67398C108.728 9.66094 108.627 9.55293 108.317 9.54337C106.841 9.49687 105.355 10.0439 104.248 9.39506C103.998 9.47726 102.188 9.76499 101.414 9.74844C100.209 9.72201 100.673 9.59475 100.194 9.57144C100.125 9.56792 99.7583 9.61091 98.7476 9.60318C98.5667 9.60178 98.6087 9.67364 98.5827 9.67459C97.4044 9.67318 95.1163 9.61646 93.8222 9.60623C93.7066 9.60517 93.1012 9.80547 92.0754 9.53604C90.5552 9.73505 87.6917 9.30748 85.6867 9.60745C85.4088 9.61379 85.0713 9.54215 84.9482 9.54459C83.8879 9.56678 84.2765 9.7843 81.8803 9.46586C82.0743 9.57678 81.5137 9.67692 80.7218 9.66849C79.5311 9.6558 80.3769 9.44895 79.4199 9.46586C79.4199 9.52424 79.4199 9.58263 79.4199 9.64102C77.2184 9.48397 76.7804 9.7336 74.5714 9.73501C73.7767 9.73536 72.603 9.60597 72.4135 9.60562C72.3403 9.606 71.4712 9.74677 71.3883 9.74783C70.9208 9.75206 70.657 9.68715 70.2535 9.6868C68.9202 9.68542 67.3291 9.86855 67.6169 9.53604C67.2503 9.60623 66.8837 9.67642 66.5171 9.74661C65.1321 9.39153 64.0963 9.88091 63.806 9.53604C63.5584 9.60725 63.3107 9.67845 63.063 9.74966C57.1226 9.71365 51.1821 9.67764 45.2417 9.64163C45.0055 9.75259 42.415 9.71321 42.2822 9.69595C41.6722 9.61774 42.3165 9.37576 41.0717 9.43107C40.934 9.53706 40.7962 9.64305 40.6584 9.74905C39.0939 9.78357 39.8464 9.67809 39.2289 9.60623C38.9709 9.6193 39.0542 9.70156 38.705 9.70755C36.8107 9.7403 32.9266 9.74419 30.8552 9.75088C30.4375 9.75229 30.5005 9.67539 30.3708 9.6752C30.0141 9.6759 29.3103 9.7728 28.5946 9.77285C24.169 9.77215 17.8978 9.71751 13.4425 9.63614C13.1399 9.6305 13.1025 9.53879 12.8983 9.53421C12.6153 9.52825 11.9832 9.60238 11.6856 9.59464C11.4052 9.58759 11.2256 9.51793 10.9257 9.5098C9.55291 9.47175 7.70725 9.58944 6.23856 9.38407C6.11504 9.36675 4.57626 8.99753 4.54144 8.97332C4.33725 8.82959 5.70468 8.6038 3.45859 8.3935C5.46605 8.20997 4.83894 7.88553 2.2312 7.72702C3.53913 7.68612 4.84707 7.64523 6.155 7.60434C6.15688 7.56589 6.15876 7.52744 6.16064 7.48899C4.97001 7.29842 3.78874 7.23501 1.97827 7.21739C2.03473 7.18179 2.09119 7.14618 2.14764 7.11058C3.74672 6.93269 5.67571 6.89981 6.89346 6.6571C5.10752 6.47746 3.32158 6.29782 1.53564 6.11818C1.62485 6.0901 1.71405 6.06203 1.80325 6.03395C2.65938 5.96104 4.52941 5.91823 5.24039 5.85024C7.9558 5.59101 2.86381 5.65624 3.70023 5.49808C6.56714 5.50378 9.43405 5.50947 12.301 5.51517C12.4015 5.3987 1.37235 5.077 1.48596 4.7254C2.38702 4.7018 3.28809 4.6782 4.18915 4.6546C3.78755 4.56529 3.38595 4.47598 2.98434 4.38667C3.095 4.35839 3.20566 4.33011 3.31631 4.30183C4.83653 4.23245 6.35674 4.16308 7.87695 4.09371C3.25498 4.16344 1.1071 4.11282 0 3.40952C0.125336 3.39162 0.250671 3.37372 0.376007 3.35581C1.37728 3.79579 6.10363 3.65348 8.61542 3.56577C8.10347 3.43689 5.89182 3.53645 5.42444 3.45896C5.292 3.43674 5.75386 3.34729 5.44702 3.30149C4.64505 3.18243 1.22758 3.02925 1.72421 2.88342C2.04403 2.78971 7.5428 2.66116 8.61542 2.67102C6.10122 2.50264 3.51071 2.45393 0.989136 2.24928C2.58078 1.96395 3.9904 1.61478 6.89572 1.59928C7.78127 1.44956 1.63091 1.24217 1.48822 1.16045C2.55263 1.07276 3.61705 0.985077 4.68146 0.897392C3.78115 0.920789 2.88084 0.944185 1.98053 0.967581C1.9779 0.938285 1.97526 0.908989 1.97263 0.879693C4.30483 0.74372 6.43849 0.494143 9.10773 0.511052C9.02162 0.356057 7.42451 0.371474 6.64957 0.370065ZM262.075 9.18571C262.129 9.31423 261.15 9.29316 260.599 9.29069C260.682 9.31409 260.764 9.33748 260.847 9.36088C259.671 9.33657 257.482 9.28725 257.401 9.53665C256.562 9.56765 256.933 9.35077 256.663 9.32609C256.557 9.31623 255.462 9.44244 254.586 9.28886C254.378 9.28947 254.17 9.29008 253.962 9.29069C253.921 9.37247 253.881 9.45426 253.841 9.53604C253.551 9.43676 253.261 9.33748 252.97 9.2382C256.004 9.2207 259.037 9.20321 262.07 9.18571C262.072 9.18571 262.073 9.18571 262.075 9.18571ZM231.839 9.2913C230.735 9.24515 229.043 9.17229 229.385 9.39628C230.082 9.38448 230.78 9.37268 231.478 9.36088C231.599 9.33769 231.719 9.31449 231.839 9.2913ZM121.954 9.11491C121.031 8.8944 120.182 9.08514 118.755 9.04534C118.757 9.09192 118.759 9.13851 118.761 9.1851C119.344 9.07323 120.887 9.14766 121.954 9.11491ZM289.484 8.34284C289.687 8.36014 289.89 8.37743 290.093 8.39472C289.267 8.64518 289.119 8.46868 288.184 8.49298C288.128 8.49451 288.147 8.55183 288.128 8.55219C287.899 8.55605 287.687 8.48705 287.481 8.4881C287.082 8.49022 286.757 8.56015 286.051 8.55768C285.505 8.55554 285.5 8.44561 285.308 8.44843C285.145 8.45115 283.524 8.75357 282.482 8.62299C280.499 8.37429 288.878 8.31959 289.484 8.34284ZM295.361 8.54975C295.165 8.55076 294.969 8.55178 294.773 8.5528C295.362 8.38382 294.172 8.4095 293.299 8.41303C293.326 8.25099 295.173 8.3203 296 8.27204C295.787 8.36461 295.574 8.45718 295.361 8.54975ZM270.562 8.20247C271.33 8.18595 271.202 8.3882 271.17 8.44843C270.926 8.44843 270.681 8.44843 270.437 8.44843C270.479 8.36644 270.521 8.28445 270.562 8.20247ZM276.334 8.13228C276.095 8.26966 274.429 8.32974 273.639 8.34101C273.605 8.34103 273.822 8.26564 273.263 8.27265C273.096 8.27486 271.446 8.5492 271.809 8.23787C273.316 8.20267 274.824 8.16747 276.331 8.13228C276.332 8.13228 276.333 8.13228 276.334 8.13228ZM278.016 8.21345C277.702 8.25658 277.388 8.29971 277.074 8.34284C276.912 8.27835 276.75 8.21386 276.588 8.14937C276.945 8.13309 277.302 8.11682 277.659 8.10054C277.778 8.13818 277.897 8.17581 278.016 8.21345ZM41.8441 8.03035C41.9171 8.09932 41.9901 8.16829 42.0631 8.23725C42.346 8.27953 43.7214 7.97923 43.286 7.9211C42.8053 7.95752 42.3247 7.99394 41.8441 8.03035ZM36.0357 7.8857C35.7497 7.85091 35.4636 7.81613 35.1776 7.78134C34.8486 7.89832 34.5196 8.0153 34.1907 8.13228C35.6197 8.21117 37.1402 8.30206 36.895 7.95711C37.2221 7.95711 37.5491 7.95711 37.8762 7.95711C37.6008 8.09974 37.6378 8.14673 38.4939 8.23725C38.6811 8.03878 39.5662 8.1399 40.5794 8.09627C39.8424 8.08467 39.1055 8.07308 38.3685 8.06148C38.3685 8.02649 38.3685 7.99149 38.3685 7.9565C40.0112 7.96914 37.9696 7.74718 36.8995 7.88631C36.8152 7.83973 36.7309 7.79314 36.6466 7.74655C36.443 7.79293 36.2393 7.83932 36.0357 7.8857ZM154.769 7.9565C154.566 7.92131 154.362 7.88611 154.158 7.85091C153.369 8.30933 154.976 7.87447 156.12 8.23725C155.742 7.96167 157.486 7.97318 157.585 7.95467C157.385 7.8619 157.184 7.76913 156.984 7.67636C156.245 7.76974 155.507 7.86312 154.769 7.9565ZM148.997 7.64035C149.703 7.86897 146.235 7.88298 145.071 7.8326C144.788 7.82022 144.284 7.69469 144.08 7.71054C143.956 7.75692 143.832 7.80331 143.708 7.84969C143.561 7.68938 141.289 7.86962 140.394 7.95589C140.31 7.8975 140.225 7.83911 140.141 7.78073C139.815 7.80392 139.488 7.82711 139.162 7.8503C139.203 7.79212 139.244 7.73393 139.285 7.67575C139.038 7.74573 138.791 7.81572 138.544 7.8857C137.575 7.96355 138.173 7.64634 137.445 7.74533C136.635 7.85523 137.962 8.04413 137.937 8.16707C138.594 8.13536 140.088 8.06439 140.754 8.06087C141.137 8.05897 140.703 8.27923 142.353 8.02608C142.715 8.08508 143.077 8.14408 143.438 8.20308C144.102 8.10929 144.766 8.0155 145.43 7.92171C145.554 8.00329 145.678 8.08488 145.802 8.16646C145.872 8.17923 147.408 7.99399 147.326 7.9327C147.948 8.08865 149.225 8.11645 150.57 8.12434C150.699 8.07999 150.829 8.03564 150.958 7.99129C149.657 8.08707 150.544 7.94436 150.157 7.85946C149.933 7.81049 149.248 7.71432 148.997 7.64035ZM50.9077 7.85152C48.7233 8.05054 50.0757 7.88633 47.7145 7.88631C47.8794 7.9917 48.0442 8.09708 48.2091 8.20247C49.37 8.00992 51.2803 8.13797 50.91 7.85152C50.9093 7.85152 50.9085 7.85152 50.9077 7.85152ZM27.8019 8.20186C29.0515 8.1381 28.4244 7.97421 30.0083 7.92171C30.0091 7.92171 30.0098 7.92171 30.0106 7.92171C29.1915 7.90991 28.3725 7.89811 27.5535 7.88631C27.6363 7.99149 27.7191 8.09668 27.8019 8.20186ZM100.848 8.0743C102.046 8.12009 101.81 8.03809 102.897 8.20186C104.516 8.00319 103.146 8.03127 103.146 7.85091C102.776 7.90381 102.406 7.95671 102.036 8.0096C101.139 7.84094 101.989 7.75603 101.989 7.73983C101.989 7.73983 101.988 7.73983 101.987 7.73983C101.987 7.68569 102.016 7.6743 101.672 7.64157C101.397 7.78581 101.123 7.93005 100.848 8.0743ZM105.975 7.85152C105.564 7.97129 105.38 8.12506 106.46 8.20186C106.46 8.20186 106.461 8.20186 106.462 8.20186C106.549 7.93418 107.584 8.15024 108.056 8.13228C108.18 8.10319 108.304 8.07409 108.428 8.045C107.61 7.98051 106.793 7.91602 105.975 7.85152ZM124.042 7.60556C124.046 7.90126 123.14 7.92939 124.415 8.20186C124.663 8.19657 124.911 8.19128 125.158 8.18599C125.321 8.12109 125.484 8.05619 125.646 7.99129C128.788 8.52636 129.724 7.61526 124.415 7.95589C124.415 7.95609 124.414 7.9563 124.413 7.9565C124.289 7.83952 124.166 7.72254 124.042 7.60556ZM118.509 7.63058C118.469 7.78581 118.429 7.94104 118.389 8.09627C117.695 7.72181 116.799 8.0791 115.439 7.8149C115.316 7.8621 115.193 7.9093 115.069 7.9565C114.561 7.85264 109.567 7.82271 110.649 8.06148C111.121 8.16575 112.15 8.02413 112.239 8.0273C112.539 8.03901 112.93 8.17237 113.437 8.16463C113.73 8.15996 114.347 8.00321 114.944 8.0035C116.28 8.0042 118.718 8.42504 120.475 8.02669C120.601 8.07348 120.728 8.12027 120.854 8.16707C122.157 8.13851 121.722 7.99025 122.935 8.16707C123.773 7.42976 118.06 8.20344 119.25 7.60556C119.249 7.60556 119.248 7.60556 119.247 7.60556C119.001 7.6139 118.755 7.62224 118.509 7.63058ZM82.6211 7.85152C82.5424 7.71912 81.0305 7.92342 81.3858 7.60617C80.8923 7.71664 80.3989 7.82711 79.9055 7.93758C79.9092 7.96708 79.913 7.99658 79.9167 8.02608C80.4072 8.00289 80.8976 7.97969 81.388 7.9565C81.3899 8.00329 81.3918 8.05009 81.3937 8.09688C82.1245 7.9276 85.1743 8.00134 85.0815 8.16707C85.2445 8.09708 85.4074 8.0271 85.5704 7.95711C87.0293 8.14769 88.2844 7.94506 89.8736 8.13106C89.9967 8.07308 90.1198 8.01509 90.2428 7.95711C90.323 8.0039 90.4032 8.0507 90.4833 8.09749C91.0622 8.10339 91.6411 8.10929 92.22 8.11519C94.1064 7.92678 90.4411 7.68286 89.9967 7.71054C89.9376 7.71441 89.9468 7.83555 89.5778 7.85458C88.9223 7.88797 85.2537 7.76736 84.1194 7.84725C84.1097 7.76689 84.0999 7.68653 84.0901 7.60617C83.6004 7.68796 83.1107 7.76974 82.6211 7.85152ZM131.051 7.92171C131.134 8.0035 131.217 8.08528 131.3 8.16707C132.729 8.08538 133.629 8.15678 133.262 7.88631C133.262 7.88631 133.261 7.88631 133.26 7.88631C132.524 7.89811 131.788 7.90991 131.051 7.92171ZM237.251 7.99129C237.214 7.82872 236.531 7.76794 235.648 7.88448C235.691 7.93168 235.733 7.97888 235.776 8.02608C236.236 7.88764 236.81 8.12893 238.229 8.09688C238.229 8.01509 238.229 7.93331 238.229 7.85152C237.903 7.89811 237.577 7.9447 237.251 7.99129ZM129.818 7.88631C129.383 7.78988 128.16 8.08244 128.965 8.09688C129.58 8.10779 130.052 7.9381 129.818 7.88631ZM22.8867 8.04378C23.2097 8.06087 23.5326 8.07796 23.8556 8.09505C24.0238 8.02547 24.192 7.95589 24.3603 7.88631C24.3595 7.88631 24.3588 7.88631 24.358 7.88631C23.8676 7.9388 23.3772 7.99129 22.8867 8.04378ZM96.7524 8.08772C97.8477 8.07755 98.9429 8.06738 100.038 8.05721C100.049 8.01184 100.06 7.96647 100.071 7.9211C98.9737 8.08667 98.5326 7.90822 98.2767 7.8973C98.2779 7.8973 98.279 7.8973 98.2801 7.8973C97.4586 7.86138 96.676 7.83495 95.8987 7.78073C96.1833 7.88306 96.4678 7.98539 96.7524 8.08772ZM92.998 7.80148C93.1825 8.12203 93.4234 8.15936 95.1061 7.93392C95.0395 7.89445 94.9728 7.85498 94.9062 7.81552C94.0343 7.8391 93.5257 7.91311 93.6788 7.74594C93.4519 7.76445 93.2249 7.78296 92.998 7.80148ZM110.15 7.90401C109.948 7.80196 108.345 7.90445 108.432 7.95589C108.467 7.97632 110.543 8.1041 110.15 7.90401ZM249.418 7.92049C249.049 7.8971 248.68 7.8737 248.31 7.8503C248.802 7.81552 249.293 7.78073 249.784 7.74594C249.662 7.80412 249.54 7.86231 249.418 7.92049ZM253.472 7.46457C253.735 7.50543 252.879 7.79364 254.453 7.868C253.308 7.87411 252.162 7.88021 251.017 7.88631C251.554 7.83973 252.091 7.79314 252.628 7.74655C252.534 7.66375 252.441 7.58094 252.347 7.49814C252.722 7.48695 253.097 7.47576 253.472 7.46457ZM254.701 7.67575C254.085 7.4567 257.332 7.44025 257.635 7.46702C257.702 7.47338 258.023 7.63945 258.141 7.67514C257.65 7.67534 257.16 7.67555 256.669 7.67575C256.834 7.72803 256.998 7.78032 257.162 7.8326C256.588 7.85051 256.014 7.86841 255.44 7.88631C255.685 7.83383 255.931 7.78134 256.176 7.72885C255.684 7.71115 255.193 7.69345 254.701 7.67575ZM241.671 7.72885C242.082 7.73434 242.492 7.73983 242.903 7.74533C242.821 7.66354 242.739 7.58176 242.657 7.49997C242.411 7.49997 242.165 7.49997 241.919 7.49997C241.837 7.57626 241.754 7.65256 241.671 7.72885ZM250.038 7.62326C249.44 8.01704 247.811 7.15617 249.715 7.47495C249.907 7.50736 250.094 7.58522 250.038 7.62326ZM258.852 7.51401C260.129 7.22692 259.841 7.86078 258.635 7.67514C258.575 7.66526 258.756 7.53521 258.852 7.51401ZM268.425 7.50486C268.528 7.50699 268.709 7.71222 269.696 7.51706C269.859 7.54046 270.022 7.56385 270.185 7.58725C269.804 7.68261 266.541 7.73934 266.992 7.53598C267.492 7.53281 267.908 7.49851 268.425 7.50486ZM265.266 6.7456C264.776 6.7513 264.286 6.75699 263.797 6.76269C263.958 6.82698 264.12 6.89127 264.281 6.95556C264.04 6.97305 263.799 6.99055 263.558 7.00804C263.147 6.89717 262.735 6.78629 262.323 6.67541C263.388 6.65771 264.452 6.64001 265.516 6.62231C265.433 6.66341 265.349 6.70451 265.266 6.7456ZM252.247 6.58692C253.189 6.66758 254.343 6.58172 255.873 6.59546C255.874 6.59566 255.875 6.59587 255.876 6.59607C255.952 6.59701 256.087 6.68532 256.333 6.68884C256.542 6.69165 260.675 6.59467 260.353 6.74438C258.754 6.87857 258.156 6.67456 257.773 7.00743C257.695 6.93725 257.617 6.86706 257.539 6.79687C256.001 6.67534 255.563 6.91831 254.699 7.00743C254.702 6.95454 254.706 6.90164 254.709 6.84875C254.133 6.84346 253.556 6.83817 252.979 6.83288C253.061 6.86767 253.142 6.90246 253.223 6.93725C253.019 6.93725 252.815 6.93725 252.611 6.93725C252.114 6.78051 251.484 6.74398 252.247 6.58692ZM267.487 6.83288C267.939 6.43166 272.351 6.70648 274.365 6.62231C273.308 6.8639 271.669 6.69741 270.515 6.69494C268.285 6.69039 269.826 6.83825 269.448 6.90307C269.261 6.93512 267.996 6.67788 267.487 6.83288ZM248.805 6.6571C249.917 6.68951 250.539 6.59714 251.501 6.74438C251.421 6.77368 251.34 6.80297 251.26 6.83227C250.93 6.80545 248.244 6.72083 248.805 6.6571ZM277.318 6.72729C275.171 6.58322 276.23 6.94649 275.113 6.67419C275.848 6.6569 276.583 6.63961 277.318 6.62231C277.318 6.65731 277.318 6.6923 277.318 6.72729ZM127.36 6.37696C126.455 6.36778 125.444 6.29457 124.903 6.44593C125.518 6.46932 126.133 6.49272 126.748 6.51612C126.952 6.46973 127.156 6.42335 127.36 6.37696ZM153.17 4.89812C152.964 4.86184 152.147 4.96892 152.06 4.96892C151.9 4.96892 151.944 4.91617 151.942 4.9024C150.895 4.91196 151.861 5.07556 151.086 5.11113C150.953 5.117 149.133 5.03613 148.393 5.04277C147.254 5.05299 146.117 5.0424 145.691 5.04521C144.972 5.04982 143.639 5.17254 142.458 5.17888C141.971 5.18128 141.801 5.08303 141.312 5.0855C138.17 5.10205 131.986 5.23695 129.199 5.1746C128.51 5.15911 127.853 5.03045 127.489 5.04094C127.202 5.08794 126.915 5.13493 126.627 5.18193C125.744 4.75888 125.449 5.13515 124.497 5.1746C123.892 5.19954 123.609 5.0742 123.528 5.07451C122.989 5.07698 122.724 5.13665 122.301 5.14653C121.826 5.15745 121.144 5.10091 120.974 5.11113C120.87 5.11798 121.202 5.28458 119.36 5.28141C117.483 5.27813 115.629 5.26052 113.72 5.25273C114.357 5.7557 114.905 5.41147 115.685 5.3931C115.894 5.38817 115.761 5.46804 115.943 5.46451C116.458 5.45499 117.442 5.37652 117.867 5.39555C118.327 5.41606 118.17 5.60115 118.753 5.53287C118.782 5.52935 118.689 5.45291 118.826 5.4401C120.204 5.31364 120.655 5.4466 122.397 5.45048C123.551 5.45328 130.559 5.37742 130.8 5.42728C132.054 5.695 124.669 5.69682 123.806 5.67569C123.503 5.66826 123.82 5.58386 123.545 5.56766C123.428 5.56119 122.378 5.72212 121.341 5.7355C120.086 5.7517 117.565 5.64192 116.369 5.64578C106.091 5.67925 95.9551 5.58198 85.6867 5.57987C85.4678 5.57987 85.1795 5.67629 84.4661 5.6763C71.1519 5.67454 57.3526 5.59851 43.8686 5.64395C40.9289 5.65382 38.0134 5.74449 35.0466 5.67264C34.6785 5.74303 34.3104 5.81342 33.9423 5.88381C34.8838 5.82784 36.6091 5.98706 36.7663 5.9894C36.8228 5.9901 37.1798 5.91073 37.7554 5.91494C38.5648 5.92057 38.9198 5.9894 38.9862 5.9894C39.192 5.98962 39.0571 5.91642 39.2538 5.91677C40.72 5.91994 41.8545 5.89916 43.2002 5.89846C44.7203 5.89778 45.4908 6.03412 46.5978 5.88442C46.7231 5.94281 46.8484 6.0012 46.9738 6.05959C47.8009 5.80707 52.7258 5.83503 54.7209 5.84841C55.3504 5.85267 55.2399 5.95522 55.4514 5.95522C55.5865 5.95509 55.5332 5.82082 57.1802 5.84719C58.0092 5.86058 58.2267 5.95839 58.6424 5.95522C58.8683 5.95335 58.8317 5.85635 59.1562 5.85635C61.0331 5.85635 62.5658 5.88782 64.4034 5.90578C64.92 5.91072 64.9257 5.99168 65.0413 5.99062C65.467 5.987 66.2074 5.84989 67.2895 5.85024C69.0706 5.85095 72.6203 5.85142 74.0768 5.91799C74.2908 5.92785 74.4681 6.02499 74.6255 6.02358C74.8639 6.0211 74.9574 5.91975 74.9993 5.91921C75.7964 5.91745 75.3168 6.01169 75.8507 5.98879C76.1385 5.97645 76.4385 5.86087 77.1074 5.8478C77.9906 5.83054 77.8167 5.96774 78.1858 5.954C78.2247 5.95185 78.2364 5.85645 78.599 5.85329C79.9742 5.84202 81.969 5.81999 83.2703 5.82034C83.6442 5.82034 83.9222 5.88456 84.4435 5.88564C85.494 5.88776 91.4649 5.84683 91.9546 5.88381C92.0063 5.88769 91.4753 6.02842 92.3216 6.02419C92.5674 5.9656 92.8131 5.907 93.0589 5.84841C93.4699 5.9422 93.881 6.03599 94.292 6.12978C94.2772 5.80573 96.6952 5.75569 96.6711 6.08705C96.9357 6.10048 97.2003 6.11391 97.4649 6.12733C98.0159 5.89839 98.3827 5.98291 99.4477 5.84841C99.6136 5.9186 99.7796 5.98879 99.9456 6.05898C99.9874 6.01219 100.029 5.96539 100.071 5.9186C100.639 6.17218 101.571 5.91757 101.685 5.91616C102.12 5.91053 102.447 5.97499 102.651 5.97292C103.414 5.96623 105.064 5.87742 105.955 5.9186C105.997 5.92071 105.956 6.02911 106.209 6.0425C106.666 6.06667 106.711 5.90797 107.32 6.09438C107.443 6.04758 107.566 6.00079 107.689 5.954C107.82 5.97821 107.951 6.00242 108.081 6.02663C108.852 6.01422 109.623 6.00181 110.394 5.9894C109.693 6.17293 110.499 6.27542 111.262 6.131C111.52 6.08202 111.291 5.97031 111.377 5.95339C111.495 5.93049 114.955 5.98737 115.184 6.05959C115.347 6.02439 115.511 5.9892 115.675 5.954C115.757 6.02439 115.84 6.09478 115.923 6.16518C116.013 6.14056 116.104 6.11594 116.194 6.09132C117.094 6.21531 119.431 5.93093 119.855 5.95339C120.081 5.96537 119.878 6.2654 120.962 6.23475C121 6.15236 121.038 6.06996 121.075 5.98757C121.324 5.97577 121.572 5.96397 121.821 5.95217C122.287 5.95951 122.965 6.10231 122.987 6.19996C123.133 6.14137 123.278 6.08278 123.424 6.02419C123.815 6.21509 125.901 6.14743 126.74 6.02663C126.986 6.0842 127.231 6.14178 127.477 6.19935C127.806 6.12937 128.136 6.05938 128.466 5.9894C129.23 5.96833 128.423 6.08467 128.585 6.09438C128.93 6.11446 130.685 5.91791 130.569 6.16273C130.809 6.16334 131.048 6.16395 131.287 6.16456C131.411 6.09458 131.534 6.0246 131.657 5.95461C132.068 6.1959 132.779 6.11072 134.237 6.19874C134.359 6.1432 134.481 6.08766 134.604 6.03212C135.055 6.11106 135.506 6.19 135.956 6.26893C136.049 6.17697 136.142 6.08502 136.234 5.99306C136.43 5.97984 136.626 5.96661 136.823 5.95339C137.221 6.15938 137.936 5.93679 138.301 6.02175C138.832 6.14574 138.421 6.2935 137.435 6.32203C137.508 6.47205 140.447 6.40317 141.125 6.39222C141.08 6.36292 141.035 6.33363 140.99 6.30433C140.297 6.32752 139.604 6.35072 138.911 6.37391C138.331 5.99664 140.213 6.09782 141.076 6.04921C141.155 6.04455 141.602 5.90162 142.473 5.91494C142.81 5.92022 144.125 6.12914 144.375 6.14076C146.402 6.23616 144.912 5.93764 146.895 6.19935C146.481 5.99892 147.62 6.16547 148.806 6.12672C149.008 6.1201 150.72 5.95762 150.835 5.95339C151.556 5.92732 150.771 6.10449 151.814 6.05837C151.94 6.01178 152.065 5.96519 152.19 5.9186C152.433 5.9186 152.676 5.9186 152.919 5.9186C154.392 6.33379 154.734 6.02804 155.258 5.98879C155.47 5.97294 155.197 6.08126 155.746 6.05837C155.953 6.04985 156.182 5.95973 156.737 5.95339C158.476 5.9337 159.067 6.31948 160.666 5.91799C160.911 5.97618 161.156 6.03436 161.402 6.09255C161.567 6.02276 161.733 5.95298 161.899 5.8832C163.165 6.08569 162.708 5.87829 163.166 5.88076C164.374 5.8871 166.846 5.9268 167.062 6.09377C168.105 5.71023 169.352 6.1429 169.763 6.12794C170.008 6.08136 170.252 6.03477 170.496 5.98818C170.783 6.03497 171.07 6.08176 171.358 6.12856C171.218 5.75192 172.705 6.12229 172.848 6.12794C173.013 6.13358 175.3 6.02212 176.152 6.02419C177.002 6.0263 178.484 6.12835 178.615 6.12856C178.765 6.12856 180.212 6.02618 181.344 6.02724C182.334 6.02834 188.2 6.17377 187.831 6.00588C187.447 5.95938 186.901 5.91908 186.428 5.89724C184.962 5.83031 176.356 5.74457 174.157 5.7178C169.746 5.66462 165.146 5.67448 160.715 5.63785C160.455 5.63574 160.415 5.53812 160.191 5.53592C159.852 5.5331 158.99 5.63081 158.656 5.62869C157.406 5.62024 155.886 5.6043 155.216 5.60184C153.721 5.5969 152.695 5.53811 151.564 5.5286C151.209 5.52578 149.418 5.64679 148.191 5.59573C147.968 5.56827 147.746 5.5408 147.523 5.51334C148.156 5.48128 149.815 5.39834 150.585 5.38883C151.731 5.37511 152.328 5.45429 152.751 5.45292C153.106 5.45186 154.916 5.36168 155.74 5.35954C155.996 5.35883 156.049 5.4612 156.268 5.46085C157.456 5.45839 159.021 5.45565 160.051 5.35526C159.631 5.38802 162.258 5.45083 162.396 5.45048C162.632 5.45044 162.888 5.35465 163.37 5.35465C164.297 5.3547 164.18 5.55506 165.338 5.35465C165.625 5.41304 165.912 5.47143 166.199 5.52982C166.216 5.26289 169.84 5.62597 170.871 5.30155C170.898 5.26492 166.189 5.16097 165.8 5.15568C163.468 5.12364 160.017 5.18909 157.754 5.14226C157.072 5.12817 154.931 4.9659 154.769 4.96892C154.509 4.9735 154.744 5.06632 154.632 5.06963C152.327 5.13865 153.477 4.95209 153.17 4.89812ZM254.699 6.41114C253.999 6.40015 253.299 6.38917 252.599 6.37818C252.65 6.31959 252.7 6.261 252.751 6.20241C253.072 6.22519 253.393 6.24798 253.713 6.27076C253.96 6.23577 254.206 6.20078 254.453 6.16579C254.535 6.24757 254.617 6.32935 254.699 6.41114ZM256.424 6.16579C257.031 6.13628 257.061 6.25984 257.201 6.26588C257.619 6.28419 257.981 6.23423 258.387 6.23597C257.919 6.52947 256.924 6.39497 256.424 6.16579ZM243.885 6.0602C244.022 6.07424 244.936 6.39021 245.975 6.09621C246.753 6.18959 247.53 6.28297 248.308 6.37635C246.987 6.23368 245.159 6.38199 244.512 6.37635C244.266 6.37421 244.219 6.27722 244.023 6.27565C242.891 6.2679 241.791 6.48766 241.675 6.1664C242.746 6.25975 243.711 6.04294 243.885 6.0602ZM250.714 6.17433C250.895 6.24147 251.076 6.3086 251.257 6.37574C250.603 6.37574 249.949 6.37574 249.295 6.37574C249.472 6.30779 249.649 6.23984 249.826 6.17189C250.122 6.1727 250.418 6.17352 250.714 6.17433ZM200.389 5.95217C200.793 5.95298 201.196 5.9538 201.6 5.95461C201.578 5.90568 201.116 5.90587 200.946 5.87283C200.947 5.87283 200.947 5.87283 200.948 5.87283C200.759 5.83549 200.84 5.77248 200.495 5.74466C200.46 5.81383 200.425 5.883 200.389 5.95217ZM33.4533 5.67386C32.777 5.67034 26.5314 5.66998 27.0635 5.84841C27.3316 5.93753 29.4677 5.85982 30.0975 5.86123C30.9465 5.86304 33.2393 6.05601 33.4533 5.67386ZM22.3922 5.63907C22.284 5.81689 26.1873 5.84517 26.5689 5.81423C26.4879 5.78888 26.363 5.73244 26.255 5.71963C25.7286 5.65834 23.2336 5.68767 22.3922 5.63907ZM177.794 5.43888C178.108 5.5288 178.423 5.61872 178.738 5.70865C178.655 5.59167 178.572 5.47469 178.489 5.3577C178.257 5.38476 178.026 5.41182 177.794 5.43888ZM147.271 5.56766C142.029 5.56196 136.787 5.55627 131.545 5.55057C132.006 5.50195 132.467 5.45332 132.928 5.4047C137.445 5.42196 142.262 5.47119 146.624 5.39616C146.839 5.45332 147.055 5.51049 147.271 5.56766ZM242.408 5.53348C241.065 5.53173 239.943 5.61766 238.482 5.48099C239.875 5.34854 240.564 5.55347 241.917 5.35831C241.918 5.35831 241.919 5.35831 241.919 5.35831C242.082 5.4167 242.245 5.47509 242.408 5.53348ZM212.423 5.49808C212.831 5.4163 213.239 5.33451 213.648 5.25273C213.156 5.25273 212.665 5.25273 212.174 5.25273C212.257 5.33451 212.34 5.4163 212.423 5.49808ZM101.547 5.11296C100.142 5.29147 96.5482 4.96839 95.4064 5.18315C95.3326 5.19724 96.0113 5.28787 94.9141 5.46329C95.7429 5.42737 96.3281 5.39071 96.3899 5.25273C96.6361 5.29952 96.8822 5.34631 97.1284 5.3931C97.5368 5.3577 97.9451 5.32231 98.3535 5.28691C98.3092 5.42429 98.3416 5.41697 98.9689 5.32292C99.255 5.3577 99.541 5.39249 99.8271 5.42728C99.9482 5.3691 100.069 5.31091 100.191 5.25273C100.438 5.33411 100.686 5.41548 100.934 5.49686C101.899 5.40858 101.311 5.2509 101.547 5.11296ZM106.464 5.14653C106.236 5.11629 99.7226 5.21495 102.683 5.48893C103.452 5.48018 104.221 5.47143 104.991 5.46268C104.353 5.00897 106.45 5.41472 106.622 5.42423C107.446 5.46855 108.496 5.36066 109.094 5.36625C109.608 5.37118 109.913 5.45257 110.275 5.45048C111.507 5.44343 113.452 5.44047 113.72 5.25273C112.763 5.24882 111.79 5.2468 110.794 5.25151C109.742 5.25644 108.816 5.07924 106.838 5.32231C106.349 5.29619 106.523 5.15428 106.464 5.14653ZM214.877 5.27165C214.828 5.46023 217.314 5.41513 217.33 5.34062C217.335 5.29694 216.525 5.29797 216.41 5.28141C216.409 5.28141 216.408 5.28141 216.407 5.28141C216.359 5.27418 216.604 5.20199 216.223 5.18193C215.775 5.21184 215.326 5.24174 214.877 5.27165ZM43.1674 5.25212C42.8314 5.1463 35.1552 5.18435 34.9291 5.23503C34.8677 5.2491 34.9534 5.29551 34.9291 5.32231C36.7199 5.173 39.2657 5.34971 40.9656 5.36137C41.4394 5.36451 41.2978 5.28954 41.3246 5.28813C41.3258 5.28813 41.3269 5.28813 41.328 5.28813C41.5969 5.28794 42.8108 5.4711 43.1674 5.25212ZM92.9483 5.26921C93.2746 5.29871 93.6009 5.32821 93.9272 5.3577C94.01 5.29932 94.0929 5.24093 94.1757 5.18254C94.1749 5.18254 94.1742 5.18254 94.1734 5.18254C93.765 5.21143 93.3567 5.24032 92.9483 5.26921ZM81.6421 5.07695C81.7215 5.11805 81.8009 5.15914 81.8803 5.20024C82.702 5.20594 83.5236 5.21163 84.3453 5.21733C84.2625 5.24052 84.1797 5.26371 84.0969 5.28691C85.3392 5.3489 85.8537 5.20448 86.5155 5.22526C86.5147 5.22526 86.514 5.22526 86.5132 5.22526C86.5845 5.22768 86.6707 5.31331 86.9355 5.3162C87.5429 5.32289 89.2838 5.35476 89.4942 5.2686C89.9394 5.08476 86.436 5.17202 85.7827 5.16362C85.4875 5.15974 85.1323 5.08482 84.9528 5.08306C84.756 5.08141 84.488 5.1826 84.0088 5.17949C83.8686 5.17843 82.3139 5.05938 81.6421 5.07695ZM67.1393 5.19963C67.3927 5.29227 67.9217 5.20279 68.116 5.21794C68.1624 5.22151 67.8013 5.29906 68.2391 5.32231C68.3629 5.26941 68.4867 5.21651 68.6106 5.16362C68.1201 5.17562 67.6297 5.18763 67.1393 5.19963ZM219.054 5.18254C218.983 5.16266 217.648 5.16993 217.584 5.18254C216.784 5.35162 219.549 5.33331 219.054 5.18254ZM252.733 4.98906C252.119 4.74331 259.403 4.98491 260.109 4.97197C260.074 5.12643 258.341 4.97114 259.248 5.18315C258.382 5.06655 255.988 5.12847 255.425 5.09465C255.083 5.07421 254.997 4.9408 254.945 4.93658C254.742 4.92155 252.95 5.07569 252.733 4.98906ZM266.127 5.07695C265.435 5.04766 264.743 5.01836 264.051 4.98906C264.867 4.97157 265.684 4.95407 266.501 4.93658C266.376 4.98337 266.252 5.03016 266.127 5.07695ZM266.998 5.00676C266.976 4.85705 269.325 4.9711 269.943 4.93658C269.246 5.19125 268.085 4.95115 266.998 5.00676ZM227.907 4.7962C226.824 4.69721 226.359 5.15356 227.675 4.95489C227.715 4.94832 227.952 4.80144 227.907 4.7962ZM101.213 4.47089C101.028 4.46807 98.7325 4.32011 98.5997 4.39338C98.1795 4.62712 99.6859 4.53338 100.191 4.62164C101.005 4.76466 99.8074 4.8825 101.795 4.7962C101.714 4.84299 101.633 4.88978 101.551 4.93658C102.715 4.95207 102.334 4.62793 102.543 4.58624C102.607 4.57357 103.334 4.60083 103.465 4.58014C105.105 4.319 101.384 4.47307 101.213 4.47089ZM201.111 4.76141C198.956 4.62403 199.883 4.82561 197.671 4.81329C197.598 4.91615 200.83 4.85159 201.111 4.76141ZM122.197 4.65582C119.968 4.69631 118.135 4.56179 116.056 4.74249C116.192 5.02078 122.775 4.72768 122.197 4.65582ZM17.477 4.37385C26.1487 4.86946 36.1513 4.7063 45.3839 4.69855C46.3901 4.69784 46.4866 4.80818 46.8507 4.7962C47.0892 4.78844 47.0475 4.69957 47.3645 4.69916C58.8212 4.68471 69.7913 4.56845 80.7659 4.62164C81.4571 4.62517 84.8203 4.81601 85.5388 4.52826C86.0822 4.30996 83.6662 4.48017 83.2635 4.47822C82.961 4.47681 82.9481 4.37421 82.7464 4.37385C82.5324 4.3735 82.7092 4.44359 82.4607 4.44465C81.4079 4.44957 80.259 4.42218 79.307 4.42817C69.9709 4.48559 60.888 4.46916 51.601 4.4593C50.4769 4.45823 50.708 4.37603 50.6514 4.37568C50.6507 4.37588 50.6499 4.37609 50.6492 4.37629C44.6219 4.36854 37.7383 4.55294 31.3542 4.48249C26.8587 4.42593 22.3632 4.36937 17.8677 4.31282C17.7374 4.33316 17.6072 4.3535 17.477 4.37385ZM105.972 4.7608C105.411 4.45082 105.286 4.76336 103.273 4.6369C103.109 4.6898 102.946 4.74269 102.782 4.79559C103.846 4.78399 104.911 4.7724 105.975 4.7608C105.974 4.7608 105.973 4.7608 105.972 4.7608ZM92.6807 4.64789C92.3406 4.22923 87.8406 4.52511 85.8143 4.44526C85.4429 4.65551 88.3886 4.56106 89.0832 4.58319C89.4301 4.59411 91.2878 4.81036 92.6999 4.69061C92.6935 4.67637 92.6871 4.66213 92.6807 4.64789ZM245.113 4.37385C244.785 4.38605 244.458 4.39826 244.13 4.41047C244.95 4.45685 245.769 4.50324 246.588 4.54962C245.281 4.51972 243.974 4.48981 242.667 4.45991C242.91 4.37303 243.154 4.28616 243.397 4.19929C243.969 4.25748 244.541 4.31566 245.113 4.37385ZM240.871 4.4184C243.161 4.38569 240.771 4.61824 240.2 4.51484C239.858 4.45284 240.638 4.42193 240.871 4.4184ZM234.917 4.26887C235.985 4.11636 238.143 4.10586 237.376 4.41047C236.222 4.2678 235.478 4.38635 233.805 4.30427C234.05 4.24588 234.294 4.18749 234.538 4.12911C234.539 4.12911 234.54 4.12911 234.541 4.12911C234.667 4.17569 234.792 4.22228 234.917 4.26887ZM241.917 4.23408C243.416 4.40908 239.076 4.34925 240.44 4.23408C240.504 4.2288 241.858 4.22739 241.917 4.23408ZM27.0635 4.05892C26.8829 4.15845 28.036 4.15659 28.4196 4.16328C30.0825 4.19286 32.2152 4.14955 33.9445 4.16328C33.8143 4.13053 33.6841 4.09777 33.5538 4.06502C31.3904 4.06299 29.2269 4.06095 27.0635 4.05892ZM39.3543 4.16389C40.5425 4.16389 41.7308 4.16389 42.919 4.16389C43.0297 4.16389 43.5491 4.07848 43.1629 4.0577C41.8934 4.0931 40.6238 4.12849 39.3543 4.16389ZM113.473 4.16389C112.562 4.10815 115.185 3.82244 115.067 4.12849C114.536 4.14029 114.004 4.15209 113.473 4.16389ZM121.951 4.04183C121.379 4.07092 120.808 4.10001 120.236 4.12911C120.236 4.09391 120.235 4.05871 120.234 4.02352C120.806 4.02962 121.378 4.03572 121.951 4.04183ZM22.3922 3.98873C22.9974 4.10917 24.4411 4.09063 25.3415 4.0931C24.7214 3.98961 23.2432 4.04049 22.3922 3.98873ZM99.8225 4.04061C99.8963 4.12268 96.2723 4.10203 97.527 3.9576C98.2922 3.98527 99.0574 4.01294 99.8225 4.04061ZM92.4616 3.91915C93.2389 3.90119 93.841 3.92939 93.6811 4.05831C93.269 4.05281 92.8568 4.04732 92.4447 4.04183C92.4503 4.00094 92.456 3.96004 92.4616 3.91915ZM230.854 4.02352C229.544 4.03511 228.234 4.04671 226.924 4.05831C226.973 4.02311 227.021 3.98791 227.07 3.95272C228.333 3.94133 229.595 3.92993 230.858 3.91854C230.857 3.95353 230.855 3.98852 230.854 4.02352ZM21.6515 3.67258C20.7519 3.69557 19.8523 3.71855 18.9528 3.74154C19.8531 3.76514 20.7534 3.78874 21.6537 3.81234C21.6537 3.76555 21.6537 3.71876 21.6537 3.67197C21.653 3.67217 21.6522 3.67237 21.6515 3.67258ZM248.797 3.5676C244.796 3.40346 249.901 3.22995 250.957 3.47117C250.958 3.47096 250.959 3.47076 250.96 3.47056C251.053 3.49187 250.857 3.59497 251.011 3.63657C250.604 3.58998 250.197 3.54339 249.79 3.4968C249.418 3.55478 249.047 3.61276 248.675 3.67075C248.553 3.64796 248.43 3.62517 248.308 3.60239C248.471 3.59079 248.634 3.5792 248.797 3.5676ZM264.946 3.47605C268.574 3.49508 264.862 3.75289 263.066 3.54929C263.079 3.50217 264.612 3.47429 264.946 3.47605ZM255.438 3.53159C254.866 3.55499 254.294 3.57838 253.722 3.60178C253.649 3.57228 253.576 3.54278 253.503 3.51328C253.942 3.48398 254.381 3.45469 254.82 3.42539C255.026 3.46079 255.232 3.49619 255.438 3.53159ZM236.635 3.07628C235.715 3.04387 234.541 3.37189 237.495 3.28562C237.494 3.25043 237.492 3.21523 237.491 3.18004C237.373 3.18566 237.028 3.21867 237.009 3.21605C236.955 3.20724 237.018 3.08971 236.635 3.07628ZM271.665 2.54895C271.768 2.53556 271.824 2.16431 272.899 2.54834C273.224 2.52495 273.548 2.50155 273.873 2.47815C273.957 2.55994 274.041 2.64172 274.125 2.72351C272.868 2.6601 272.735 2.82557 272.644 2.8291C272.226 2.84458 272.535 2.75947 272.265 2.7583C271.569 2.75548 269.987 2.81263 270.705 2.5697C270.963 2.4827 271.561 2.56234 271.665 2.54895ZM269.206 2.33778C269.359 2.36877 268.868 2.47737 268.983 2.50806C269.084 2.53483 270.599 2.64563 270.189 2.8291C269.94 2.82137 269.691 2.81363 269.442 2.8059C269.358 2.75565 269.274 2.7054 269.189 2.65515C268.949 2.70154 268.708 2.74792 268.467 2.79431C268.061 2.67031 267.197 2.50968 268.223 2.40858C267.846 2.41916 267.469 2.42973 267.091 2.44031C266.896 2.49972 266.701 2.55913 266.505 2.61853C266.608 2.528 266.71 2.43747 266.813 2.34693C267.611 2.34388 268.408 2.34083 269.206 2.33778ZM280.898 2.37257C280.852 2.41936 280.806 2.46615 280.76 2.51294C282.145 2.42595 284.302 2.39288 283.077 2.68628C281.201 2.71069 279.324 2.73511 277.448 2.75952C277.323 2.72432 277.199 2.68913 277.074 2.65393C278.474 2.78953 278.041 2.2125 279.259 2.37806C279.464 2.40613 278.869 2.60792 280.159 2.47877C280.113 2.43177 280.067 2.38477 280.021 2.33778C280.313 2.34937 280.606 2.36097 280.898 2.37257ZM292.805 2.44276C290.433 2.37512 293.045 2.20436 293.483 2.34632C293.482 2.34632 293.482 2.34632 293.481 2.34632C294.681 2.73479 292.1 2.5471 291.943 2.54956C291.734 2.553 291.246 2.83111 290.108 2.42567C291.007 2.43136 291.906 2.43706 292.805 2.44276ZM285.062 2.37318C285.261 2.36402 285.151 2.43465 285.237 2.4336C285.238 2.4336 285.238 2.4336 285.239 2.4336C286.509 2.41845 289.528 2.35522 289.855 2.58313C288.915 2.60215 284.711 2.6514 284.457 2.49646C284.658 2.45537 284.86 2.41427 285.062 2.37318ZM276.129 2.54285C275.35 2.39529 277.104 2.37564 277.564 2.44398C277.651 2.45878 276.937 2.69571 276.129 2.54285ZM216.349 2.162C214.634 2.25077 216.887 2.33936 216.107 2.47815C216.434 2.46635 216.762 2.45456 217.089 2.44276C216.842 2.34917 216.596 2.25559 216.349 2.162ZM138.173 1.88186C137.773 1.86546 137.963 1.95019 137.928 1.95144C137.665 1.94908 137.418 1.88005 137.317 1.88735C135.454 2.02669 136.693 2.09785 136.712 2.1144C136.751 2.19822 136.262 2.2963 136.94 2.3921C137.352 2.36239 137.764 2.33269 138.175 2.30299C138.38 2.34958 138.584 2.39617 138.788 2.44276C139.606 2.3428 138.536 2.31538 138.415 2.18275C138.368 2.13062 139.137 2.06821 138.173 1.88186ZM213.276 1.88125C212.998 2.02849 212.317 2.21424 212.986 2.36219C212.987 2.36219 212.988 2.36219 212.988 2.36219C213.112 2.38926 213.616 2.40414 213.771 2.44214C214.875 2.24598 214.452 2.04326 213.276 1.88125ZM145.559 1.6182C146.223 1.65258 146.887 1.68696 147.551 1.72134C147.539 1.80964 147.528 1.89793 147.517 1.98623C147.161 1.96242 146.806 1.93862 146.451 1.91482C146.326 1.9551 146.202 1.99538 146.077 2.03566C146.518 2.13637 146.959 2.23707 147.4 2.33778C147.932 2.30258 148.463 2.26739 148.995 2.23219C148.751 2.1856 148.506 2.13901 148.262 2.09242C149.561 2.04099 149.278 2.2557 150.353 2.33778C150.721 2.25599 151.089 2.17421 151.457 2.09242C151.99 2.17462 152.523 2.25681 153.056 2.339C153.952 2.3006 154.031 2.238 153.428 2.1443C153.873 2.03722 154.361 2.20564 154.897 2.162C154.941 2.15848 154.858 2.05763 154.897 2.05641C157.669 1.98843 157.522 2.25327 157.965 2.26454C158.277 2.27228 159.525 2.09355 159.544 2.03261C159.568 1.95049 156.974 1.62666 161.037 1.6182C158.936 1.39421 156.548 1.62221 158.092 1.95083C157.427 1.91776 154.496 1.99975 154.309 1.98989C154.036 1.97501 154.132 1.85033 153.79 1.84707C153.589 1.84531 153.054 2.1303 151.457 1.88125C151.253 1.92804 151.049 1.97483 150.845 2.02163C150.654 1.98317 150.463 1.94472 150.272 1.90627C150.666 1.76915 151.059 1.63203 151.453 1.49491C149.893 1.6439 148.6 1.36401 147.65 1.59989C146.829 1.57243 146.43 1.54529 146.783 1.42472C146.536 1.42472 146.29 1.42472 146.043 1.42472C145.882 1.48921 145.72 1.5537 145.559 1.6182ZM208.238 2.09181C207.422 1.95491 207.129 2.25026 207.256 2.26698C207.971 2.35889 208.663 2.16304 208.238 2.09181ZM139.654 2.03871C140.555 2.1148 141.455 2.19089 142.355 2.26698C142.355 2.1736 142.355 2.08022 142.355 1.98684C141.455 2.00413 140.555 2.02142 139.654 2.03871ZM216.599 1.95205C216.682 2.02203 216.765 2.09202 216.848 2.162C217.834 1.90637 218.813 2.27315 219.3 2.1974C219.406 2.18085 219.192 2.05728 218.991 2.03078C218.865 2.01422 216.774 1.92845 216.599 1.95205ZM257.652 1.98562C257.284 2.03261 256.917 2.07961 256.55 2.1266C256.57 2.04787 256.59 1.96914 256.611 1.8904C256.792 1.87576 256.974 1.86111 257.155 1.84646C257.321 1.89285 257.486 1.93923 257.652 1.98562ZM253.472 2.11073C252.816 2.10443 252.161 2.09812 251.506 2.09181C254.005 2.0196 251.954 1.98436 253.472 1.88186C253.472 1.95815 253.472 2.03444 253.472 2.11073ZM246.839 1.95144C246.92 1.90444 247 1.85745 247.081 1.81045C247.736 1.81045 248.391 1.81045 249.047 1.81045C248.632 1.64729 248.218 1.48413 247.803 1.32096C247.563 1.32056 247.323 1.32015 247.083 1.31974C247.002 1.53031 246.92 1.74087 246.839 1.95144ZM120.472 1.53092C120.076 1.5281 118.698 1.67069 118.757 1.72317C119.33 1.78766 119.902 1.85216 120.475 1.91665C120.477 1.82306 120.48 1.72948 120.483 1.6359C120.564 1.68248 120.644 1.72907 120.725 1.77566C121.051 1.74067 121.377 1.70568 121.702 1.67068C121.866 1.75247 122.03 1.83425 122.194 1.91604C122.359 1.82266 122.524 1.72928 122.689 1.6359C121.117 1.47034 121.171 1.63581 120.844 1.63406C120.678 1.63327 120.573 1.57533 120.514 1.54618C120.5 1.54109 120.486 1.536 120.472 1.53092ZM140.277 1.44303C138.4 1.41978 137.327 1.66616 135.969 1.46012C136.84 1.89902 142.464 1.44567 144.447 1.81167C144.652 1.74128 144.858 1.67089 145.064 1.6005C143.985 1.66318 143.236 1.5182 142.71 1.49735C142.292 1.48079 142.335 1.55456 142.303 1.5535C142.302 1.5535 142.3 1.5535 142.299 1.5535C141.32 1.52321 141.017 1.4522 140.277 1.44303ZM217.994 1.60782C217.489 1.4966 216.607 1.50773 216.597 1.67007C217.088 1.71707 217.579 1.76406 218.071 1.81106C217.97 1.76949 218.08 1.62684 217.994 1.60782ZM246.077 1.49796C245.683 1.44512 244.753 1.49142 245.154 1.63162C245.226 1.65651 246.153 1.55796 245.609 1.81106C246.512 1.80715 246.301 1.52833 246.077 1.49796ZM172.351 1.77566C172.682 1.77098 173.014 1.7663 173.345 1.76162C173.422 1.69611 173.499 1.63061 173.576 1.5651C173.168 1.63529 172.76 1.70547 172.351 1.77566ZM222.251 1.49552C222.691 1.81612 223.443 1.50413 224.27 1.76773C224.575 1.76976 224.88 1.7718 225.185 1.77383C225.186 1.77383 225.187 1.77383 225.188 1.77383C225.196 1.68635 225.204 1.59887 225.212 1.51139C224.225 1.5061 223.238 1.50081 222.251 1.49552ZM151.699 1.61759C151.903 1.65827 152.107 1.69896 152.311 1.73965C152.674 1.69225 153.038 1.64485 153.401 1.59744C153.204 1.56347 153.008 1.52949 152.811 1.49552C152.441 1.53621 152.07 1.5769 151.699 1.61759ZM227.616 1.46805C226.549 1.4279 226.147 1.7066 227.513 1.7073C228.088 1.7073 228.735 1.51001 227.616 1.46805ZM100.075 1.63468C100.441 1.65848 100.807 1.68228 101.173 1.70608C101.298 1.64749 101.422 1.5889 101.547 1.53031C101.056 1.5651 100.566 1.59989 100.075 1.63468ZM251.14 1.5297C251.097 1.58829 251.054 1.64688 251.011 1.70547C250.685 1.69367 250.359 1.68187 250.032 1.67007C250.114 1.61189 250.196 1.5537 250.278 1.49552C250.566 1.50691 250.853 1.5183 251.14 1.5297ZM102.537 1.67068C102.829 1.68187 103.122 1.69306 103.414 1.70425C103.611 1.67577 103.807 1.64729 104.004 1.61881C103.73 1.59053 103.457 1.56225 103.183 1.53397C102.968 1.57954 102.752 1.62511 102.537 1.67068ZM237.737 1.49491C237.326 1.42446 235.685 1.64396 237.163 1.69998C238.105 1.73555 237.799 1.50563 237.737 1.49491ZM239.951 1.42472C238.387 1.29051 239.56 1.97169 241.427 1.53031C239.547 1.59082 240.043 1.43283 239.951 1.42472ZM253.71 1.07317C253.749 1.07352 253.782 1.17147 254.096 1.17509C255.228 1.18778 256.722 1.22648 257.531 1.23247C259.477 1.24691 265.437 1.06985 266.134 1.35331C266.279 1.41284 265.945 1.59073 266.004 1.59989C266.177 1.62543 267.174 1.53912 266.99 1.67007C266.012 1.66906 265.033 1.66804 264.055 1.66702C264.295 1.57466 264.536 1.4823 264.776 1.38993C262.338 1.43924 263.145 1.43355 262.444 1.63468C262.031 1.55676 261.619 1.47884 261.206 1.40092C260.308 1.47924 259.41 1.55757 258.512 1.6359C258.716 1.57751 258.919 1.51912 259.123 1.46073C257.77 1.35259 258.146 1.4235 257.406 1.5651C257.404 1.50671 257.403 1.44832 257.401 1.38993C256.095 1.53224 255.84 1.35726 255.555 1.35514C254.97 1.3517 254.223 2.04254 251.99 1.35514C251.049 1.68575 251.07 1.01317 250.517 1.35514C248.923 0.982864 251.954 1.1176 253.388 1.12993C253.389 1.12993 253.39 1.12993 253.39 1.12993C253.499 1.13099 253.327 1.0683 253.71 1.07317ZM245.524 1.41557C246.488 1.11209 242.677 1.08368 243.938 1.52176C244.126 1.536 244.314 1.55025 244.502 1.56449C244.843 1.51485 245.184 1.46521 245.526 1.41557C245.525 1.41557 245.524 1.41557 245.524 1.41557ZM209.711 1.21416C206.181 1.33886 208.188 1.51343 209.384 1.34294C209.623 1.30912 209.753 1.26276 209.711 1.21416ZM137.595 1.20988C137.543 1.2463 137.492 1.28272 137.44 1.31913C138.624 1.28505 140.913 1.42552 140.882 1.17998C139.786 1.18995 138.691 1.19991 137.595 1.20988ZM146.96 1.04937C146.706 1.03455 145.667 0.999597 145.793 1.09148C146.243 1.15658 146.693 1.22168 147.143 1.28679C147.353 1.2461 147.562 1.20541 147.772 1.16472C147.479 1.15088 147.029 1.05324 146.96 1.04937Z" fill="#674DFF"/>
</svg>
